<?xml version="1.0" standalone="no"?>
<!DOCTYPE svg PUBLIC "-//W3C//DTD SVG 20010904//EN"
 "http://www.w3.org/TR/2001/REC-SVG-20010904/DTD/svg10.dtd">
<svg version="1.0" xmlns="http://www.w3.org/2000/svg"
 width="255.000000pt" height="255.000000pt" viewBox="0 0 255.000000 255.000000"
 preserveAspectRatio="xMidYMid meet">
<metadata>
Created by potrace 1.16, written by Peter Selinger 2001-2019
</metadata>
<g transform="translate(0.000000,255.000000) scale(0.100000,-0.100000)"
fill="#000000" stroke="none">
<path d="M420 2441 l0 -99 -97 -4 c-151 -6 -235 -55 -290 -166 l-28 -57 -3
-934 c-3 -1028 -5 -993 58 -1080 17 -23 52 -55 77 -71 l47 -30 1096 0 1096 0
46 29 c25 16 57 44 71 63 60 78 57 20 57 1071 l0 963 -26 52 c-53 106 -138
154 -286 160 l-98 4 0 99 0 99 -100 0 -100 0 0 -100 0 -100 -660 0 -660 0 0
100 0 100 -100 0 -100 0 0 -99z m0 -401 l0 -100 100 0 100 0 0 100 0 100 660
0 660 0 0 -100 0 -100 100 0 100 0 0 100 0 100 70 0 c81 0 120 -16 138 -55 7
-16 12 -76 12 -155 l0 -130 -1080 0 -1080 0 0 133 c1 184 16 206 148 207 l72
0 0 -100z m1940 -1110 c0 -497 -3 -676 -12 -695 -26 -57 19 -55 -1068 -55
-1087 0 -1042 -2 -1068 55 -9 19 -12 198 -12 695 l0 670 1080 0 1080 0 0 -670z"/>
<path d="M380 1290 l0 -100 100 0 100 0 0 100 0 100 -100 0 -100 0 0 -100z"/>
<path d="M780 1290 l0 -100 100 0 100 0 0 100 0 100 -100 0 -100 0 0 -100z"/>
<path d="M1180 1290 l0 -100 100 0 100 0 0 100 0 100 -100 0 -100 0 0 -100z"/>
<path d="M1580 1290 l0 -100 100 0 100 0 0 100 0 100 -100 0 -100 0 0 -100z"/>
<path d="M1980 1290 l0 -100 100 0 100 0 0 100 0 100 -100 0 -100 0 0 -100z"/>
<path d="M380 890 l0 -100 100 0 100 0 0 100 0 100 -100 0 -100 0 0 -100z"/>
<path d="M780 890 l0 -100 100 0 100 0 0 100 0 100 -100 0 -100 0 0 -100z"/>
<path d="M1180 890 l0 -100 100 0 100 0 0 100 0 100 -100 0 -100 0 0 -100z"/>
<path d="M1580 890 l0 -100 100 0 100 0 0 100 0 100 -100 0 -100 0 0 -100z"/>
<path d="M1980 890 l0 -100 100 0 100 0 0 100 0 100 -100 0 -100 0 0 -100z"/>
<path d="M380 490 l0 -100 100 0 100 0 0 100 0 100 -100 0 -100 0 0 -100z"/>
<path d="M780 490 l0 -100 100 0 100 0 0 100 0 100 -100 0 -100 0 0 -100z"/>
<path d="M1180 490 l0 -100 100 0 100 0 0 100 0 100 -100 0 -100 0 0 -100z"/>
<path d="M1580 490 l0 -100 100 0 100 0 0 100 0 100 -100 0 -100 0 0 -100z"/>
</g>
</svg>
