<?xml version="1.0" standalone="no"?>
<!DOCTYPE svg PUBLIC "-//W3C//DTD SVG 20010904//EN"
 "http://www.w3.org/TR/2001/REC-SVG-20010904/DTD/svg10.dtd">
<svg version="1.0" xmlns="http://www.w3.org/2000/svg"
 width="223.000000pt" height="255.000000pt" viewBox="0 0 223.000000 255.000000"
 preserveAspectRatio="xMidYMid meet">
<metadata>
Created by potrace 1.16, written by Peter Selinger 2001-2019
</metadata>
<g transform="translate(0.000000,255.000000) scale(0.100000,-0.100000)"
fill="#000000" stroke="none">
<path d="M3 2503 c3 -27 50 -543 103 -1148 53 -605 99 -1103 103 -1107 12 -12
877 -248 911 -248 45 0 911 241 916 255 6 20 194 2192 194 2243 l0 52 -1116 0
-1117 0 6 -47z m1822 -475 c-3 -29 -32 -352 -65 -717 -36 -405 -63 -667 -70
-671 -6 -4 -137 -41 -291 -84 l-279 -77 -279 77 c-154 42 -284 80 -290 84 -8
5 -49 362 -51 443 0 6 278 11 281 5 1 -2 6 -54 13 -117 l11 -114 157 -42 158
-43 157 43 158 42 16 144 c10 79 20 168 23 197 l6 52 -498 0 -499 0 -6 73 c-4
39 -10 100 -13 135 l-7 62 340 0 c187 0 421 3 521 7 211 7 187 -13 197 168 l7
120 -545 -3 -545 -4 -6 79 c-4 43 -9 104 -12 136 l-6 57 712 0 711 0 -6 -52z"/>
</g>
</svg>
