<svg id="svg" version="1.1" xmlns="http://www.w3.org/2000/svg" xmlns:xlink="http://www.w3.org/1999/xlink" width="400" height="406.5753424657534" viewBox="0, 0, 400,406.5753424657534"><g id="svgg"><path id="path0" d="M0.000 194.000 L 0.000 388.000 8.400 388.000 L 16.800 388.000 16.800 397.200 L 16.800 406.400 208.400 406.400 L 400.000 406.400 400.000 211.800 L 400.000 17.200 393.800 17.200 L 387.600 17.200 387.600 8.600 L 387.600 0.000 193.800 0.000 L 0.000 0.000 0.000 194.000 M378.700 193.558 C 378.775 329.755,378.683 378.259,378.351 378.659 C 377.974 379.114,348.194 379.185,193.251 379.100 L 8.600 379.000 8.500 193.900 L 8.399 8.799 193.500 8.900 L 378.600 9.000 378.700 193.558 " stroke="none" fill="#040404" fill-rule="evenodd"></path><path id="path1" d="M9.067 9.467 C 8.920 9.613,8.800 92.683,8.800 194.067 L 8.800 378.400 107.801 378.400 L 206.802 378.400 206.701 308.100 L 206.600 237.800 181.400 237.600 L 156.200 237.400 156.097 208.303 L 155.995 179.206 181.297 179.103 L 206.600 179.000 206.858 151.000 C 207.002 135.355,207.292 122.029,207.515 120.800 C 210.968 101.793,216.495 89.974,226.800 79.558 C 244.462 61.706,266.854 56.343,310.200 59.586 C 321.332 60.419,326.230 60.839,326.700 61.002 C 327.093 61.138,327.200 66.736,327.200 87.187 L 327.200 113.200 309.900 113.207 C 284.487 113.218,279.491 114.183,273.481 120.241 C 267.700 126.068,267.212 128.934,267.205 157.100 L 267.200 179.200 296.000 179.200 C 323.395 179.200,324.800 179.235,324.800 179.915 C 324.800 180.669,324.194 185.600,322.800 196.200 C 322.337 199.720,321.702 204.670,321.388 207.200 C 321.074 209.730,320.457 214.500,320.017 217.800 C 319.577 221.100,318.930 226.230,318.578 229.200 C 318.225 232.170,317.808 235.230,317.651 236.000 L 317.364 237.400 292.284 237.503 L 267.204 237.606 267.102 308.103 L 267.000 378.600 322.500 378.497 L 378.000 378.394 378.000 193.797 L 378.000 9.200 193.667 9.200 C 92.283 9.200,9.213 9.320,9.067 9.467 " stroke="none" fill="#5474fc" fill-rule="evenodd"></path><path id="path2" d="M272.000 59.187 C 236.044 62.768,214.280 83.564,207.515 120.800 C 207.292 122.029,207.002 135.355,206.858 151.000 L 206.600 179.000 181.297 179.103 L 155.995 179.206 156.097 208.303 L 156.200 237.400 181.400 237.600 L 206.600 237.800 206.701 308.303 L 206.802 378.805 236.901 378.703 L 267.000 378.600 267.101 308.103 L 267.202 237.606 292.283 237.503 L 317.364 237.400 317.651 236.000 C 317.808 235.230,318.225 232.170,318.578 229.200 C 318.930 226.230,319.577 221.100,320.017 217.800 C 320.457 214.500,321.074 209.730,321.388 207.200 C 321.702 204.670,322.337 199.720,322.800 196.200 C 324.194 185.600,324.800 180.669,324.800 179.915 C 324.800 179.235,323.395 179.200,296.000 179.200 L 267.200 179.200 267.205 157.100 C 267.212 128.934,267.700 126.068,273.481 120.241 C 279.491 114.183,284.487 113.218,309.900 113.207 L 327.200 113.200 327.200 87.187 C 327.200 66.736,327.093 61.138,326.700 61.002 C 326.235 60.841,322.164 60.490,310.200 59.580 C 303.407 59.063,276.067 58.782,272.000 59.187 " stroke="none" fill="#fbfbfc" fill-rule="evenodd"></path><path id="path3" d="M8.585 9.700 C 8.481 9.975,8.441 93.090,8.498 194.400 L 8.600 378.600 107.600 378.601 L 206.600 378.602 107.699 378.500 L 8.798 378.398 8.899 193.799 C 8.955 92.270,8.949 9.200,8.887 9.200 C 8.826 9.200,8.690 9.425,8.585 9.700 M378.100 193.699 L 378.000 378.397 322.500 378.500 L 267.000 378.603 322.513 378.701 C 366.627 378.780,378.064 378.697,378.215 378.300 C 378.319 378.025,378.358 294.820,378.302 193.400 L 378.199 9.000 378.100 193.699 " stroke="none" fill="#445ccc" fill-rule="evenodd"></path><path id="path4" d="M8.400 9.100 C 8.400 9.265,91.650 9.355,193.400 9.299 L 378.401 9.198 378.300 193.899 L 378.200 378.600 193.338 378.600 C 91.664 378.600,8.560 378.735,8.662 378.900 C 9.033 379.501,377.852 379.260,378.351 378.658 C 378.683 378.259,378.774 329.668,378.700 193.558 L 378.600 9.000 193.500 8.900 C 91.695 8.844,8.400 8.934,8.400 9.100 " stroke="none" fill="#3c54bc" fill-rule="evenodd"></path></g></svg>