<?xml version="1.0" standalone="no"?>
<!DOCTYPE svg PUBLIC "-//W3C//DTD SVG 20010904//EN"
 "http://www.w3.org/TR/2001/REC-SVG-20010904/DTD/svg10.dtd">
<svg version="1.0" xmlns="http://www.w3.org/2000/svg"
 width="225.000000pt" height="255.000000pt" viewBox="0 0 225.000000 255.000000"
 preserveAspectRatio="xMidYMid meet">
<metadata>
Created by potrace 1.16, written by Peter Selinger 2001-2019
</metadata>
<g transform="translate(0.000000,255.000000) scale(0.100000,-0.100000)"
fill="#000000" stroke="none">
<path d="M5 2483 c3 -38 39 -538 80 -1112 40 -574 77 -1047 82 -1051 4 -3 223
-77 485 -164 l478 -157 477 157 c263 86 482 160 487 165 10 8 155 2014 156
2147 l0 82 -1126 0 -1125 0 6 -67z m1851 -340 c-3 -21 -8 -86 -12 -145 l-6
-108 -556 0 -555 0 7 -117 c4 -65 9 -153 13 -195 l6 -78 529 0 529 0 -6 -82
c-4 -46 -19 -249 -34 -452 l-26 -369 -307 -103 -308 -102 -305 101 c-198 66
-307 107 -310 117 -2 8 -7 77 -11 153 l-7 138 149 -3 149 -3 5 -39 5 -39 162
-55 163 -54 157 52 c87 29 161 56 165 59 5 4 12 68 18 141 5 74 12 159 15 188
l5 52 -510 0 c-489 0 -510 1 -510 18 0 23 -58 861 -63 920 l-5 42 730 0 730 0
-6 -37z"/>
</g>
</svg>
