<svg id="svg" version="1.1" xmlns="http://www.w3.org/2000/svg" xmlns:xlink="http://www.w3.org/1999/xlink" width="400" height="406.5753424657534" viewBox="0, 0, 400,406.5753424657534"><g id="svgg"><path id="path0" d="M167.000 85.238 C 146.075 85.952,136.699 87.551,126.800 92.097 C 106.845 101.260,95.129 119.431,93.206 144.200 C 91.461 166.672,91.608 234.168,93.432 248.000 C 97.461 278.555,115.370 297.291,145.200 302.157 C 160.711 304.687,248.110 304.413,260.400 301.796 C 289.854 295.523,306.511 277.125,309.826 247.200 C 311.382 233.159,311.673 161.816,310.239 146.055 C 308.515 127.115,303.909 115.394,293.988 104.705 C 283.647 93.564,269.356 87.365,250.879 86.006 C 235.470 84.872,189.954 84.456,167.000 85.238 M248.000 105.334 C 274.792 107.649,287.903 119.648,290.393 144.130 C 292.054 160.461,292.042 229.724,290.375 245.000 C 288.057 266.249,276.490 279.129,256.600 282.609 C 242.943 284.999,160.091 285.012,146.732 282.626 C 128.298 279.335,117.477 268.726,113.656 250.198 C 110.813 236.411,110.785 152.562,113.619 138.766 C 118.203 116.453,131.100 106.746,158.200 105.214 C 175.039 104.262,236.548 104.345,248.000 105.334 M257.800 123.153 C 247.606 124.912,243.575 138.142,251.065 145.258 C 256.071 150.012,264.100 150.040,269.101 145.320 C 278.304 136.633,270.330 120.992,257.800 123.153 M199.800 138.264 C 161.565 140.551,136.501 176.384,148.271 211.932 C 161.498 251.879,211.705 263.682,241.406 233.827 C 271.507 203.572,257.790 151.916,216.600 140.411 C 213.754 139.616,203.612 137.941,202.442 138.072 C 202.089 138.112,200.900 138.198,199.800 138.264 M206.130 158.199 C 237.982 162.375,249.452 202.278,224.695 222.788 C 206.960 237.480,179.164 231.571,169.064 210.961 C 157.489 187.341,172.469 160.597,198.800 157.873 C 199.570 157.793,200.506 157.699,200.880 157.664 C 201.253 157.629,203.616 157.870,206.130 158.199 " stroke="none" fill="#fbfafc" fill-rule="evenodd"></path><path id="path1" d="M0.000 194.400 L 0.000 388.400 8.600 388.400 L 17.200 388.400 17.200 397.400 L 17.200 406.400 208.600 406.400 L 400.000 406.400 400.000 212.200 L 400.000 18.000 394.200 18.000 L 388.400 18.000 388.400 9.200 L 388.400 0.400 194.200 0.400 L 0.000 0.400 0.000 194.400 M379.100 194.500 L 379.201 379.600 194.000 379.600 L 8.800 379.600 8.800 194.667 C 8.800 92.953,8.920 9.613,9.067 9.466 C 9.214 9.319,92.509 9.244,194.167 9.300 L 379.000 9.400 379.100 194.500 " stroke="none" fill="#040404" fill-rule="evenodd"></path><path id="path2" d="M9.300 194.500 L 9.400 379.000 194.000 379.000 L 378.600 379.000 378.700 194.500 L 378.801 10.000 194.000 10.000 L 9.199 10.000 9.300 194.500 M245.600 85.192 C 255.913 85.791,261.760 86.757,270.600 89.320 C 274.527 90.459,280.749 93.490,284.995 96.333 C 288.830 98.900,293.581 103.413,297.976 108.664 C 299.378 110.339,302.289 115.123,303.656 118.000 C 304.545 119.870,305.408 121.670,305.573 122.000 C 305.738 122.330,306.359 124.220,306.954 126.200 C 307.549 128.180,308.225 130.398,308.455 131.130 C 310.681 138.204,311.607 156.514,311.604 193.400 C 311.601 233.792,310.713 250.653,308.151 258.948 C 305.993 265.936,306.001 265.916,303.652 270.800 C 298.283 281.969,288.733 291.531,278.000 296.486 C 276.130 297.349,274.330 298.188,274.000 298.350 C 272.030 299.318,262.660 301.893,259.200 302.418 C 250.332 303.763,249.038 303.794,201.600 303.778 C 154.581 303.762,152.541 303.714,144.000 302.418 C 140.557 301.896,131.221 299.332,129.200 298.355 C 128.870 298.195,127.070 297.340,125.200 296.455 C 108.868 288.723,96.906 272.242,93.949 253.400 C 93.742 252.080,93.390 250.100,93.166 249.000 C 91.945 242.987,91.579 149.406,92.751 142.600 C 92.978 141.280,93.425 138.580,93.743 136.600 C 96.334 120.497,104.007 107.145,115.800 98.220 C 117.120 97.221,118.380 96.258,118.600 96.080 C 121.983 93.337,133.558 88.502,138.569 87.739 C 139.466 87.602,140.496 87.339,140.857 87.154 C 141.676 86.735,150.857 85.569,156.200 85.206 C 162.051 84.808,238.788 84.796,245.600 85.192 M167.000 105.219 C 157.373 105.491,148.517 106.173,145.800 106.851 C 144.920 107.071,143.210 107.489,142.000 107.780 C 127.147 111.356,117.218 122.350,113.985 138.800 C 111.077 153.592,111.374 242.301,114.363 252.149 C 117.978 264.056,120.781 268.626,128.075 274.502 C 137.007 281.698,144.084 283.013,177.200 283.629 C 228.387 284.583,256.828 283.404,265.000 279.990 C 271.658 277.209,274.148 275.678,277.905 272.057 C 285.808 264.438,289.171 255.920,290.404 240.400 C 291.612 225.194,291.155 150.498,289.803 142.200 C 289.146 138.163,287.840 132.476,287.232 131.000 C 282.049 118.416,273.425 110.724,261.200 107.780 C 259.990 107.489,258.280 107.071,257.400 106.851 C 250.425 105.109,201.893 104.233,167.000 105.219 M263.957 123.196 C 275.923 126.802,276.855 143.007,265.399 148.252 C 258.891 151.232,249.278 147.264,247.771 140.976 C 247.616 140.329,247.323 139.588,247.120 139.329 C 246.492 138.530,246.701 133.691,247.449 131.679 C 250.073 124.621,256.953 121.086,263.957 123.196 M211.400 138.771 C 212.280 138.985,213.900 139.352,215.000 139.586 C 217.379 140.091,221.141 141.347,223.500 142.424 C 224.435 142.851,226.055 143.589,227.100 144.064 C 239.738 149.813,251.999 164.568,255.798 178.600 C 256.096 179.700,256.512 181.155,256.723 181.834 C 256.933 182.512,257.224 184.222,257.368 185.634 C 257.512 187.045,257.826 189.755,258.066 191.656 C 258.421 194.470,258.377 196.104,257.833 200.456 C 256.953 207.488,256.060 210.854,253.529 216.678 C 253.128 217.601,252.800 218.437,252.800 218.535 C 252.800 219.120,248.802 225.663,246.840 228.290 C 241.803 235.033,233.996 241.686,227.600 244.687 C 224.458 246.161,222.052 247.200,221.782 247.200 C 221.639 247.200,220.954 247.462,220.260 247.782 C 213.162 251.058,196.389 251.899,187.918 249.404 C 171.782 244.652,160.880 236.397,152.517 222.598 C 150.876 219.891,148.691 214.784,147.640 211.200 C 147.156 209.550,146.597 207.660,146.398 207.000 C 145.178 202.956,144.832 190.660,145.779 185.000 C 146.424 181.149,147.500 176.811,147.958 176.226 C 148.140 175.992,148.406 175.312,148.549 174.715 C 148.780 173.746,151.338 168.280,152.537 166.194 C 154.351 163.039,154.930 162.202,157.533 158.986 C 164.639 150.204,178.086 141.391,186.800 139.805 C 187.570 139.665,188.650 139.382,189.200 139.177 C 192.183 138.063,207.362 137.785,211.400 138.771 M193.010 159.239 C 188.331 160.512,182.876 163.048,180.291 165.152 C 174.581 169.800,172.100 172.773,169.407 178.200 C 158.467 200.240,171.274 225.601,195.600 230.069 C 198.284 230.562,209.368 230.286,210.084 229.708 C 210.368 229.480,211.230 229.162,212.000 229.003 C 229.769 225.326,241.704 203.211,236.259 184.056 C 231.180 166.191,210.682 154.429,193.010 159.239 " stroke="none" fill="#a404fc" fill-rule="evenodd"></path><path id="path3" d="M9.067 9.466 C 8.920 9.613,8.800 92.953,8.800 194.667 L 8.800 379.600 194.000 379.600 L 379.201 379.600 379.100 194.500 L 379.000 9.400 194.167 9.300 C 92.509 9.244,9.214 9.319,9.067 9.466 M378.700 194.500 L 378.600 379.000 194.000 379.000 L 9.400 379.000 9.300 194.500 L 9.199 10.000 194.000 10.000 L 378.801 10.000 378.700 194.500 " stroke="none" fill="#7c04bc" fill-rule="evenodd"></path><path id="path4" d="M155.476 85.217 C 152.878 85.381,150.628 85.643,150.476 85.799 C 150.324 85.955,152.360 85.948,155.000 85.784 C 157.640 85.619,163.490 85.360,168.000 85.208 L 176.200 84.931 168.200 84.925 C 163.800 84.922,158.074 85.053,155.476 85.217 M234.400 85.188 C 239.130 85.369,245.250 85.613,248.000 85.731 C 251.294 85.872,252.454 85.826,251.400 85.597 C 250.520 85.405,244.400 85.161,237.800 85.054 C 226.786 84.876,226.507 84.887,234.400 85.188 M147.300 86.276 C 147.685 86.376,148.315 86.376,148.700 86.276 C 149.085 86.175,148.770 86.093,148.000 86.093 C 147.230 86.093,146.915 86.175,147.300 86.276 M254.500 86.276 C 254.885 86.376,255.515 86.376,255.900 86.276 C 256.285 86.175,255.970 86.093,255.200 86.093 C 254.430 86.093,254.115 86.175,254.500 86.276 M142.080 86.795 C 141.354 86.967,140.634 87.234,140.480 87.389 C 140.204 87.667,142.050 87.413,144.800 86.795 L 146.200 86.480 144.800 86.481 C 144.030 86.482,142.806 86.623,142.080 86.795 M259.800 87.034 C 261.340 87.341,262.780 87.532,263.000 87.457 C 263.572 87.263,259.373 86.393,258.080 86.438 C 257.486 86.458,258.260 86.727,259.800 87.034 M136.266 88.203 C 134.440 88.705,133.425 89.202,134.233 89.198 C 134.435 89.198,135.770 88.851,137.200 88.429 C 140.109 87.570,139.290 87.372,136.266 88.203 M266.000 88.394 C 267.430 88.835,268.780 89.132,269.000 89.053 C 269.454 88.889,266.850 88.117,264.778 87.801 C 264.020 87.686,264.570 87.952,266.000 88.394 M129.800 90.359 C 125.153 92.236,123.076 93.210,123.282 93.415 C 123.389 93.523,124.900 92.957,126.639 92.158 C 128.377 91.359,130.700 90.380,131.800 89.982 C 132.900 89.584,133.530 89.251,133.200 89.243 C 132.870 89.234,131.340 89.737,129.800 90.359 M271.400 89.953 C 272.500 90.365,274.480 91.190,275.800 91.786 C 279.167 93.308,280.272 93.719,279.800 93.273 C 279.128 92.639,272.169 89.697,270.742 89.443 C 269.746 89.266,269.915 89.397,271.400 89.953 M120.702 94.711 C 119.658 95.310,118.803 95.950,118.802 96.133 C 118.800 96.488,121.409 95.036,122.386 94.138 C 123.243 93.350,122.832 93.490,120.702 94.711 M280.579 93.966 C 280.730 94.211,281.524 94.753,282.343 95.171 C 285.064 96.559,291.008 101.464,294.322 105.055 C 296.121 107.005,297.594 108.491,297.596 108.358 C 297.598 108.226,297.195 107.674,296.700 107.132 C 296.205 106.590,295.157 105.439,294.372 104.573 C 293.006 103.069,290.312 100.544,287.782 98.397 C 285.468 96.432,280.040 93.094,280.579 93.966 M115.748 98.218 C 110.794 102.054,104.371 109.223,101.787 113.800 C 100.279 116.471,100.699 116.031,103.124 112.400 C 106.863 106.803,111.243 102.177,117.214 97.519 C 117.976 96.924,118.487 96.429,118.348 96.419 C 118.210 96.408,117.040 97.218,115.748 98.218 M168.600 104.787 C 164.420 104.904,179.360 105.000,201.800 105.000 C 224.240 105.000,240.080 104.887,237.000 104.749 C 230.375 104.452,179.529 104.480,168.600 104.787 M151.245 105.644 C 149.179 105.827,147.383 106.084,147.253 106.213 C 146.972 106.494,154.630 106.016,157.200 105.591 L 159.000 105.294 157.000 105.302 C 155.900 105.306,153.310 105.460,151.245 105.644 M246.000 105.568 C 248.459 106.005,256.667 106.432,254.600 106.015 C 253.720 105.838,251.020 105.593,248.600 105.471 C 245.875 105.333,244.885 105.370,246.000 105.568 M141.800 107.415 L 140.200 107.968 142.000 107.739 C 143.970 107.488,145.636 106.810,144.200 106.843 C 143.760 106.853,142.680 107.110,141.800 107.415 M258.800 107.167 C 259.130 107.356,260.210 107.613,261.200 107.739 L 263.000 107.968 261.400 107.415 C 259.541 106.772,257.822 106.608,258.800 107.167 M137.870 108.581 C 136.133 109.200,135.276 109.856,136.800 109.400 C 138.285 108.956,140.259 108.067,139.800 108.050 C 139.580 108.042,138.712 108.281,137.870 108.581 M264.200 108.567 C 264.860 108.861,265.850 109.220,266.400 109.365 L 267.400 109.629 266.400 109.070 C 265.850 108.762,264.860 108.403,264.200 108.272 L 263.000 108.033 264.200 108.567 M299.393 111.327 C 300.365 112.716,301.635 114.800,302.216 115.957 C 302.797 117.114,303.368 117.965,303.485 117.848 C 303.852 117.481,298.514 108.816,297.913 108.805 C 297.756 108.802,298.422 109.937,299.393 111.327 M133.323 110.575 C 127.611 113.235,120.878 119.911,117.828 125.940 C 117.233 127.117,116.825 128.158,116.921 128.254 C 117.017 128.350,117.412 127.747,117.799 126.914 C 120.685 120.702,128.343 113.069,134.100 110.667 C 134.925 110.322,135.600 109.942,135.600 109.820 C 135.600 109.511,135.627 109.502,133.323 110.575 M267.600 109.775 C 267.600 109.871,268.727 110.505,270.105 111.183 C 271.482 111.861,273.597 113.139,274.805 114.024 L 277.000 115.631 275.311 114.071 C 273.339 112.249,267.600 109.052,267.600 109.775 M277.200 115.780 C 277.200 115.969,277.879 116.770,278.708 117.561 C 281.971 120.674,286.074 127.081,286.917 130.383 C 287.055 130.923,287.290 131.243,287.439 131.094 C 287.881 130.653,284.524 124.065,282.412 121.226 C 280.393 118.513,277.200 115.177,277.200 115.780 M100.252 116.316 C 99.839 116.984,99.216 118.800,99.400 118.800 C 99.700 118.800,100.873 116.339,100.670 116.136 C 100.565 116.032,100.377 116.113,100.252 116.316 M303.617 118.700 C 303.642 119.145,305.164 121.853,305.183 121.487 C 305.210 120.993,304.065 118.400,303.820 118.400 C 303.699 118.400,303.608 118.535,303.617 118.700 M98.400 120.200 C 98.168 120.811,98.068 121.401,98.178 121.511 C 98.288 121.621,98.568 121.211,98.800 120.600 C 99.032 119.989,99.132 119.399,99.022 119.289 C 98.912 119.179,98.632 119.589,98.400 120.200 M97.281 123.087 C 96.642 124.753,96.322 126.000,96.535 126.000 C 96.786 126.000,98.040 122.306,97.853 122.119 C 97.773 122.040,97.516 122.475,97.281 123.087 M305.403 122.800 C 305.880 124.425,306.492 125.196,306.197 123.800 C 306.057 123.140,305.756 122.420,305.527 122.200 C 305.240 121.924,305.201 122.111,305.403 122.800 M257.820 122.761 C 257.359 122.942,258.333 123.067,260.200 123.067 C 262.067 123.067,263.041 122.942,262.580 122.761 C 262.151 122.594,261.080 122.456,260.200 122.456 C 259.320 122.456,258.249 122.594,257.820 122.761 M252.907 124.762 C 250.509 126.312,248.355 128.881,247.843 130.800 C 247.697 131.350,248.018 130.979,248.558 129.975 C 249.846 127.579,252.124 125.401,254.600 124.200 C 255.700 123.666,256.313 123.223,255.962 123.215 C 255.611 123.207,254.237 123.903,252.907 124.762 M265.400 124.142 C 268.042 125.376,269.786 126.892,271.056 129.060 C 271.629 130.037,272.190 130.743,272.304 130.630 C 273.093 129.840,268.326 124.863,265.713 123.749 C 263.537 122.821,263.275 123.150,265.400 124.142 M306.679 126.200 C 306.814 126.860,307.166 128.030,307.461 128.800 L 307.998 130.200 307.752 128.800 C 307.617 128.030,307.264 126.860,306.970 126.200 L 306.433 125.000 306.679 126.200 M95.660 127.822 C 94.834 130.808,94.781 132.233,95.594 129.600 C 96.035 128.170,96.332 126.820,96.253 126.600 C 96.173 126.380,95.907 126.930,95.660 127.822 M116.000 130.000 C 115.721 130.674,115.586 131.319,115.700 131.433 C 115.814 131.547,116.109 131.062,116.356 130.356 C 116.602 129.649,116.737 129.004,116.656 128.922 C 116.574 128.841,116.279 129.326,116.000 130.000 M308.151 131.400 C 308.254 131.840,308.562 133.506,308.834 135.102 C 309.106 136.698,309.406 137.927,309.500 137.833 C 309.777 137.557,308.813 131.944,308.368 131.242 C 308.026 130.701,307.992 130.726,308.151 131.400 M272.728 132.400 C 273.080 134.212,273.075 137.374,272.717 139.400 C 272.490 140.687,272.522 140.847,272.883 140.219 C 273.650 138.881,273.768 133.982,273.072 132.400 L 272.456 131.000 272.728 132.400 M287.853 132.791 C 287.991 133.557,288.341 134.907,288.630 135.791 L 289.157 137.400 288.919 135.800 C 288.788 134.920,288.438 133.570,288.142 132.800 L 287.602 131.400 287.853 132.791 M247.002 132.794 C 246.637 133.944,246.692 138.852,247.075 139.235 C 247.254 139.414,247.400 137.859,247.400 135.780 C 247.400 131.714,247.384 131.591,247.002 132.794 M94.265 133.070 C 93.921 134.281,93.511 138.000,93.721 138.000 C 93.990 138.000,94.886 132.752,94.656 132.523 C 94.556 132.422,94.380 132.668,94.265 133.070 M114.657 133.900 C 114.178 135.600,113.979 137.378,114.331 136.800 C 114.754 136.108,115.330 133.200,115.045 133.200 C 114.940 133.200,114.765 133.515,114.657 133.900 M289.437 139.800 C 289.559 141.120,289.819 142.830,290.017 143.600 C 290.288 144.659,290.323 144.347,290.158 142.317 C 290.038 140.842,289.777 139.132,289.578 138.517 C 289.317 137.710,289.278 138.066,289.437 139.800 M113.255 140.478 C 113.016 141.865,112.735 144.800,112.629 147.000 C 112.417 151.411,112.432 151.329,113.588 141.628 C 114.066 137.613,113.867 136.925,113.255 140.478 M193.200 138.435 C 190.168 138.824,188.636 139.169,188.876 139.410 C 188.970 139.503,190.206 139.387,191.623 139.152 C 193.041 138.916,195.910 138.587,198.000 138.420 L 201.800 138.116 198.800 138.109 C 197.150 138.105,194.630 138.252,193.200 138.435 M207.400 138.624 C 212.840 139.520,213.847 139.627,213.200 139.239 C 212.617 138.890,206.007 137.954,204.800 138.050 C 204.470 138.076,205.640 138.335,207.400 138.624 M309.851 141.400 C 310.509 149.890,310.760 151.570,310.567 146.193 C 310.464 143.329,310.212 140.449,310.007 139.793 C 309.733 138.916,309.691 139.342,309.851 141.400 M93.037 140.486 C 92.661 142.323,92.013 155.421,92.071 160.000 C 92.105 162.680,92.217 161.678,92.450 156.600 C 92.632 152.640,92.958 147.158,93.175 144.418 C 93.574 139.381,93.528 138.085,93.037 140.486 M185.786 139.973 C 185.119 140.133,184.219 140.477,183.786 140.737 C 182.870 141.289,184.152 141.066,187.000 140.178 C 188.714 139.644,187.802 139.490,185.786 139.973 M216.777 140.421 C 218.194 140.838,219.426 141.107,219.516 141.017 C 219.731 140.803,215.635 139.591,214.827 139.631 C 214.482 139.647,215.359 140.003,216.777 140.421 M247.840 141.200 C 249.464 147.324,259.034 151.202,265.304 148.277 C 267.289 147.352,271.019 144.486,270.681 144.147 C 270.594 144.061,269.846 144.628,269.018 145.409 C 262.850 151.226,252.504 149.412,248.431 141.800 C 247.919 140.843,247.681 140.602,247.840 141.200 M181.400 141.485 C 180.960 141.591,180.420 141.860,180.200 142.084 C 179.930 142.358,180.125 142.395,180.800 142.197 C 182.871 141.589,183.355 141.015,181.400 141.485 M221.147 141.853 C 221.887 142.176,222.587 142.346,222.702 142.231 C 222.943 141.990,220.982 141.184,220.274 141.233 C 220.013 141.251,220.406 141.530,221.147 141.853 M271.390 142.500 L 270.760 143.800 271.580 142.856 C 272.031 142.336,272.400 141.751,272.400 141.556 C 272.400 140.856,272.010 141.221,271.390 142.500 M177.376 143.380 C 176.627 143.940,176.632 143.952,177.506 143.732 C 178.005 143.606,178.510 143.345,178.630 143.152 C 178.968 142.604,178.236 142.738,177.376 143.380 M227.474 144.766 C 236.966 149.805,245.184 157.598,249.989 166.118 C 250.709 167.393,251.381 168.352,251.484 168.250 C 251.984 167.750,247.734 161.534,243.812 157.030 C 239.475 152.048,232.102 146.366,226.725 143.860 C 223.084 142.164,223.484 142.648,227.474 144.766 M174.700 144.629 C 174.095 144.957,173.600 145.300,173.600 145.392 C 173.600 145.679,175.990 144.740,176.224 144.361 C 176.546 143.841,175.964 143.943,174.700 144.629 M171.400 146.492 C 166.609 149.955,164.203 151.899,162.004 154.085 C 159.239 156.834,155.592 161.077,155.613 161.521 C 155.621 161.674,156.192 161.080,156.883 160.200 C 160.238 155.928,167.465 149.481,172.662 146.124 C 173.068 145.861,173.220 145.642,173.000 145.636 C 172.780 145.630,172.060 146.016,171.400 146.492 M290.528 148.800 C 290.528 150.230,290.601 150.815,290.689 150.100 C 290.778 149.385,290.778 148.215,290.689 147.500 C 290.601 146.785,290.528 147.370,290.528 148.800 M291.000 194.400 C 291.000 217.830,291.110 234.030,291.245 230.400 C 291.563 221.808,291.564 166.485,291.246 158.200 C 291.111 154.680,291.000 170.970,291.000 194.400 M310.954 158.800 C 310.954 161.550,311.018 162.675,311.096 161.300 C 311.174 159.925,311.174 157.675,311.096 156.300 C 311.018 154.925,310.954 156.050,310.954 158.800 M111.864 161.300 C 111.541 169.821,111.609 224.167,111.951 230.200 C 112.088 232.620,112.200 216.555,112.200 194.500 C 112.200 172.445,112.183 154.400,112.163 154.400 C 112.143 154.400,112.008 157.505,111.864 161.300 M198.200 157.988 C 196.701 158.203,197.495 158.290,201.367 158.337 C 204.208 158.372,206.458 158.332,206.367 158.249 C 205.994 157.910,200.064 157.721,198.200 157.988 M192.266 159.003 C 191.203 159.295,190.226 159.641,190.095 159.771 C 189.794 160.073,192.076 159.620,194.182 158.960 C 196.326 158.289,194.737 158.324,192.266 159.003 M209.984 159.181 C 211.625 159.612,213.032 159.901,213.111 159.822 C 213.352 159.581,210.700 158.835,208.800 158.610 C 207.487 158.454,207.807 158.609,209.984 159.181 M187.400 160.807 C 186.508 161.245,186.242 161.484,186.800 161.347 C 187.969 161.059,189.986 160.035,189.400 160.027 C 189.180 160.023,188.280 160.375,187.400 160.807 M216.355 161.398 C 217.980 162.171,219.960 163.190,220.755 163.663 C 221.673 164.209,221.981 164.290,221.600 163.884 C 220.921 163.161,215.921 160.636,214.400 160.249 C 213.850 160.108,214.730 160.626,216.355 161.398 M183.393 162.656 C 180.965 164.266,180.765 164.638,183.000 163.387 C 185.261 162.123,185.954 161.600,185.373 161.600 C 185.160 161.600,184.269 162.075,183.393 162.656 M153.884 163.863 C 153.270 164.874,152.843 165.776,152.934 165.868 C 153.026 165.959,153.525 165.351,154.044 164.517 C 154.562 163.683,155.134 162.775,155.313 162.500 C 155.493 162.225,155.496 162.006,155.320 162.013 C 155.144 162.020,154.498 162.852,153.884 163.863 M178.382 166.165 C 175.921 168.121,174.250 169.860,172.584 172.200 C 171.230 174.101,171.636 173.758,174.180 170.853 C 176.111 168.647,179.074 165.934,180.301 165.248 C 180.682 165.034,180.897 164.763,180.778 164.645 C 180.660 164.527,179.582 165.211,178.382 166.165 M225.908 167.749 C 227.943 169.701,230.461 172.599,231.504 174.187 C 234.428 178.642,234.532 178.768,233.168 176.200 C 230.929 171.985,227.386 168.005,223.004 164.785 C 222.566 164.463,223.873 165.797,225.908 167.749 M311.390 193.600 C 311.390 209.770,311.439 216.385,311.500 208.300 C 311.560 200.215,311.560 186.985,311.500 178.900 C 311.439 170.815,311.390 177.430,311.390 193.600 M152.111 166.900 C 151.639 167.510,151.158 168.800,151.402 168.800 C 151.500 168.800,151.859 168.260,152.200 167.600 C 152.839 166.365,152.794 166.017,152.111 166.900 M251.975 169.700 C 252.860 171.942,254.356 174.956,254.377 174.537 C 254.406 173.963,252.111 168.800,251.827 168.800 C 251.713 168.800,251.780 169.205,251.975 169.700 M149.831 171.445 C 149.253 172.707,148.691 174.204,148.582 174.770 L 148.383 175.800 148.853 174.800 C 150.226 171.876,151.193 169.459,151.047 169.313 C 150.956 169.223,150.409 170.182,149.831 171.445 M170.333 175.498 C 169.149 177.400,166.747 182.601,167.335 181.992 C 167.622 181.694,171.522 174.000,171.386 174.000 C 171.319 174.000,170.846 174.674,170.333 175.498 M254.595 175.844 C 254.718 176.308,255.081 177.478,255.401 178.444 L 255.984 180.200 255.757 178.608 C 255.632 177.733,255.269 176.563,254.950 176.008 C 254.483 175.195,254.414 175.163,254.595 175.844 M147.662 176.845 C 147.146 178.213,146.701 180.400,146.938 180.400 C 147.213 180.400,148.406 176.272,148.192 176.059 C 148.099 175.966,147.860 176.319,147.662 176.845 M234.628 179.600 C 234.772 180.150,235.050 180.771,235.245 180.980 C 235.816 181.591,235.641 180.714,234.969 179.600 L 234.367 178.600 234.628 179.600 M256.227 181.400 C 257.304 187.465,257.519 188.470,257.554 187.600 C 257.612 186.146,256.822 181.562,256.387 180.828 C 256.121 180.381,256.075 180.547,256.227 181.400 M146.272 181.756 C 146.148 182.080,145.951 183.483,145.835 184.873 L 145.624 187.400 146.199 184.420 C 146.742 181.602,146.774 180.448,146.272 181.756 M235.749 182.300 C 235.861 182.685,236.155 183.783,236.402 184.740 C 236.650 185.698,236.947 186.386,237.063 186.270 C 237.311 186.022,236.079 181.600,235.762 181.600 C 235.643 181.600,235.638 181.915,235.749 182.300 M166.200 185.200 C 165.817 186.761,165.586 188.120,165.687 188.220 C 165.787 188.320,166.178 187.121,166.556 185.556 C 166.933 183.990,167.164 182.631,167.069 182.536 C 166.974 182.440,166.583 183.639,166.200 185.200 M237.400 194.573 C 237.400 198.952,237.532 201.538,237.722 200.892 C 238.135 199.490,238.131 190.210,237.716 188.480 C 237.525 187.683,237.400 190.093,237.400 194.573 M145.309 189.200 C 145.309 190.190,145.387 190.595,145.482 190.100 C 145.578 189.605,145.578 188.795,145.482 188.300 C 145.387 187.805,145.309 188.210,145.309 189.200 M165.117 191.900 C 165.008 193.385,165.046 195.680,165.201 197.000 C 165.432 198.967,165.493 198.480,165.541 194.300 C 165.606 188.707,165.427 187.694,165.117 191.900 M257.750 195.200 C 257.746 200.198,257.774 200.399,258.120 197.900 C 258.350 196.239,258.351 194.161,258.124 192.500 C 257.783 190.003,257.755 190.206,257.750 195.200 M145.337 197.400 C 145.339 199.160,145.409 199.830,145.493 198.889 C 145.578 197.949,145.577 196.509,145.491 195.689 C 145.405 194.870,145.336 195.640,145.337 197.400 M165.787 201.400 C 166.051 203.451,166.803 206.131,167.046 205.888 C 167.149 205.785,166.861 204.373,166.407 202.750 C 165.914 200.989,165.664 200.445,165.787 201.400 M145.832 203.368 C 145.945 204.890,146.212 206.420,146.426 206.768 C 146.830 207.422,146.779 206.931,145.992 202.600 C 145.658 200.760,145.645 200.822,145.832 203.368 M256.853 204.417 C 256.583 206.058,256.277 207.850,256.172 208.400 C 255.986 209.377,255.991 209.379,256.380 208.494 C 256.907 207.297,257.722 202.566,257.511 201.932 C 257.419 201.658,257.124 202.776,256.853 204.417 M236.200 205.070 C 235.830 206.352,234.915 208.646,234.166 210.170 C 233.418 211.693,232.883 213.016,232.976 213.110 C 233.266 213.400,235.139 209.397,236.219 206.180 C 236.785 204.494,237.164 203.031,237.061 202.928 C 236.958 202.825,236.571 203.789,236.200 205.070 M167.228 206.492 C 167.182 206.965,168.486 210.048,168.658 209.875 C 168.745 209.788,168.466 208.925,168.037 207.958 C 167.608 206.991,167.244 206.331,167.228 206.492 M146.840 208.227 C 146.779 208.878,148.030 212.904,148.230 212.703 C 148.327 212.606,148.063 211.463,147.643 210.164 C 147.223 208.864,146.862 207.992,146.840 208.227 M255.193 211.225 C 254.953 212.119,254.664 213.154,254.552 213.525 C 254.441 213.896,254.609 213.750,254.927 213.200 C 255.555 212.114,256.197 209.600,255.847 209.600 C 255.728 209.600,255.434 210.331,255.193 211.225 M169.071 211.100 C 170.741 215.855,179.956 225.062,184.900 226.913 C 186.246 227.417,185.581 226.866,183.300 225.586 C 178.208 222.731,173.254 217.778,170.411 212.700 C 169.123 210.398,168.609 209.785,169.071 211.100 M148.433 213.474 C 148.384 214.182,149.190 216.143,149.431 215.902 C 149.546 215.787,149.376 215.087,149.053 214.347 C 148.730 213.606,148.451 213.213,148.433 213.474 M230.038 216.783 C 227.286 220.276,223.468 223.591,219.882 225.599 C 218.607 226.313,217.651 226.984,217.758 227.091 C 218.894 228.227,230.214 218.367,232.444 214.300 C 233.189 212.942,232.519 213.634,230.038 216.783 M253.667 215.580 C 253.433 216.251,253.327 216.800,253.431 216.800 C 253.701 216.800,254.456 214.722,254.257 214.524 C 254.167 214.433,253.901 214.908,253.667 215.580 M149.600 216.532 C 149.600 217.067,152.062 221.991,152.450 222.231 C 152.669 222.366,152.187 221.155,151.378 219.539 C 149.868 216.525,149.600 216.071,149.600 216.532 M251.969 219.300 C 247.676 228.613,237.994 238.590,228.104 243.894 C 223.920 246.137,223.401 246.684,227.125 244.925 C 237.264 240.136,250.268 226.608,252.997 218.011 C 253.469 216.522,252.948 217.176,251.969 219.300 M152.800 223.028 C 152.800 223.364,155.204 226.800,155.439 226.800 C 155.549 226.800,155.493 226.575,155.313 226.300 C 155.134 226.025,154.567 225.125,154.054 224.300 C 153.174 222.885,152.800 222.506,152.800 223.028 M310.959 229.200 C 310.959 232.390,311.021 233.695,311.097 232.100 C 311.173 230.505,311.173 227.895,311.097 226.300 C 311.021 224.705,310.959 226.010,310.959 229.200 M92.058 228.800 C 91.987 233.931,92.744 247.237,93.185 248.600 C 93.498 249.567,93.531 249.374,93.354 247.600 C 93.234 246.390,92.904 240.900,92.621 235.400 C 92.337 229.900,92.084 226.930,92.058 228.800 M155.838 227.600 C 157.832 231.613,168.213 240.790,174.600 244.187 C 177.405 245.679,182.041 247.692,182.232 247.501 C 182.320 247.413,180.999 246.733,179.296 245.989 C 171.072 242.399,163.210 236.306,156.858 228.600 C 156.133 227.720,155.674 227.270,155.838 227.600 M186.000 227.420 C 186.000 227.665,188.593 228.810,189.087 228.783 C 189.453 228.764,186.745 227.242,186.300 227.217 C 186.135 227.208,186.000 227.299,186.000 227.420 M215.600 227.831 L 214.600 228.433 215.600 228.172 C 216.150 228.028,216.771 227.750,216.980 227.555 C 217.591 226.984,216.714 227.159,215.600 227.831 M190.000 229.140 C 190.330 229.337,191.320 229.614,192.200 229.757 C 193.206 229.920,193.577 229.884,193.200 229.660 C 192.870 229.463,191.880 229.186,191.000 229.043 C 189.994 228.880,189.623 228.916,190.000 229.140 M211.400 229.085 C 210.960 229.191,210.420 229.453,210.200 229.667 C 209.745 230.111,211.818 229.705,212.800 229.158 C 213.500 228.769,212.855 228.735,211.400 229.085 M195.662 230.542 C 197.875 230.978,206.653 230.971,208.091 230.533 C 208.757 230.329,206.216 230.200,201.553 230.200 C 196.241 230.200,194.452 230.304,195.662 230.542 M290.531 240.200 C 290.533 241.740,290.605 242.321,290.692 241.491 C 290.779 240.661,290.777 239.401,290.689 238.691 C 290.600 237.981,290.529 238.660,290.531 240.200 M310.253 241.993 C 310.107 244.409,309.895 247.244,309.783 248.293 C 309.624 249.785,309.666 250.003,309.980 249.291 C 310.395 248.350,311.076 237.600,310.721 237.600 C 310.611 237.600,310.400 239.577,310.253 241.993 M112.642 241.800 C 112.828 245.597,113.540 250.993,113.820 250.714 C 113.964 250.570,112.908 239.872,112.625 238.600 C 112.527 238.160,112.535 239.600,112.642 241.800 M289.860 245.700 C 289.297 249.853,289.199 251.426,289.574 250.283 C 290.013 248.944,290.578 244.000,290.292 244.000 C 290.181 244.000,289.987 244.765,289.860 245.700 M222.075 246.673 C 221.126 247.009,220.422 247.355,220.510 247.443 C 220.720 247.653,223.291 246.790,223.780 246.345 C 224.255 245.914,224.184 245.927,222.075 246.673 M183.800 248.214 C 184.460 248.517,185.360 248.758,185.800 248.752 C 186.319 248.743,186.108 248.550,185.200 248.200 C 183.367 247.494,182.252 247.506,183.800 248.214 M217.200 248.383 C 215.990 248.787,215.145 249.136,215.323 249.159 C 215.930 249.236,219.399 248.292,219.780 247.946 C 220.337 247.439,219.711 247.545,217.200 248.383 M188.800 249.573 C 189.130 249.765,190.480 250.024,191.800 250.149 L 194.200 250.377 191.800 249.806 C 188.922 249.121,187.884 249.041,188.800 249.573 M211.200 249.832 L 209.000 250.375 211.104 250.173 C 213.304 249.962,215.812 249.231,214.200 249.270 C 213.760 249.281,212.410 249.534,211.200 249.832 M198.162 250.860 C 199.901 251.032,202.871 251.032,204.762 250.861 C 207.803 250.584,207.438 250.548,201.600 250.547 C 195.997 250.547,195.478 250.594,198.162 250.860 M93.844 253.000 C 93.973 254.320,94.245 255.670,94.449 256.000 C 94.688 256.386,94.724 255.890,94.551 254.608 C 94.128 251.480,93.572 250.215,93.844 253.000 M114.243 253.000 C 114.386 253.880,114.663 254.870,114.860 255.200 C 115.084 255.577,115.120 255.206,114.957 254.200 C 114.814 253.320,114.537 252.330,114.340 252.000 C 114.116 251.623,114.080 251.994,114.243 253.000 M288.433 253.485 C 288.175 254.538,287.873 255.760,287.763 256.200 C 287.596 256.865,287.630 256.893,287.965 256.364 C 288.436 255.622,289.303 251.969,289.065 251.732 C 288.976 251.642,288.691 252.431,288.433 253.485 M308.632 254.900 C 308.483 255.835,308.269 257.050,308.156 257.600 C 307.996 258.373,308.041 258.459,308.351 257.979 C 308.785 257.306,309.431 253.200,309.103 253.200 C 308.992 253.200,308.781 253.965,308.632 254.900 M95.029 258.200 C 95.425 260.405,96.107 262.605,96.262 262.178 C 96.346 261.945,96.054 260.685,95.614 259.378 C 95.173 258.070,94.910 257.540,95.029 258.200 M115.643 257.664 C 115.465 260.440,121.981 269.898,126.945 274.067 C 130.832 277.332,142.496 282.837,143.468 281.866 C 143.554 281.780,141.870 281.127,139.726 280.417 C 128.272 276.618,120.097 268.921,116.129 258.200 C 115.885 257.540,115.666 257.299,115.643 257.664 M286.646 259.046 C 285.809 261.502,286.105 261.798,287.015 259.415 C 287.400 258.407,287.620 257.486,287.503 257.369 C 287.386 257.252,287.000 258.007,286.646 259.046 M307.067 261.067 C 306.709 262.323,306.493 263.426,306.585 263.518 C 306.677 263.610,307.050 262.663,307.413 261.413 C 307.777 260.163,307.994 259.060,307.895 258.962 C 307.797 258.863,307.424 259.811,307.067 261.067 M284.380 263.900 C 281.923 268.261,277.436 273.104,273.322 275.834 C 271.173 277.261,270.273 278.281,272.300 276.993 C 277.685 273.572,284.247 266.388,285.722 262.300 C 286.200 260.977,285.674 261.603,284.380 263.900 M96.443 263.200 C 96.431 263.530,96.775 264.520,97.207 265.400 C 97.646 266.294,97.884 266.559,97.747 266.000 C 97.368 264.461,96.468 262.527,96.443 263.200 M305.668 265.176 C 305.409 265.920,305.282 266.616,305.387 266.720 C 305.654 266.987,306.458 264.773,306.283 264.250 C 306.205 264.014,305.928 264.431,305.668 265.176 M98.000 267.358 C 98.000 269.964,105.116 280.615,110.430 285.963 C 113.681 289.236,113.592 288.782,110.300 285.303 C 105.525 280.254,102.894 276.585,100.353 271.431 C 98.423 267.518,98.000 266.785,98.000 267.358 M304.800 267.284 C 304.800 267.404,304.528 268.154,304.195 268.951 C 303.862 269.748,303.691 270.400,303.815 270.400 C 304.165 270.400,305.275 267.542,305.023 267.290 C 304.901 267.167,304.800 267.165,304.800 267.284 M302.061 273.206 C 301.355 274.523,300.858 275.600,300.959 275.600 C 301.250 275.600,303.704 271.170,303.516 270.983 C 303.423 270.889,302.768 271.890,302.061 273.206 M298.093 279.300 C 295.273 283.177,289.242 289.130,285.700 291.534 C 284.325 292.467,283.200 293.324,283.200 293.439 C 283.200 293.916,287.630 290.762,290.507 288.236 C 294.146 285.040,301.655 276.000,300.670 276.000 C 300.573 276.000,299.413 277.485,298.093 279.300 M268.246 278.599 C 267.171 279.114,265.919 279.632,265.464 279.752 C 265.008 279.871,264.755 280.088,264.901 280.234 C 265.047 280.381,266.480 279.862,268.084 279.082 C 269.688 278.302,270.820 277.664,270.600 277.663 C 270.380 277.663,269.321 278.084,268.246 278.599 M261.400 281.082 C 260.300 281.426,259.586 281.776,259.814 281.859 C 260.042 281.942,261.212 281.661,262.414 281.234 C 265.025 280.308,264.247 280.191,261.400 281.082 M144.450 282.183 C 144.814 282.547,154.094 283.598,156.320 283.528 L 158.600 283.456 156.600 283.322 C 155.500 283.248,152.468 282.921,149.863 282.594 C 144.715 281.948,144.174 281.907,144.450 282.183 M253.200 282.620 C 251.110 282.915,248.410 283.198,247.200 283.250 L 245.000 283.344 246.891 283.494 C 248.700 283.637,258.363 282.570,258.748 282.185 C 259.031 281.902,257.376 282.032,253.200 282.620 M167.800 284.061 C 175.341 284.389,229.141 284.377,236.400 284.046 C 239.370 283.911,223.800 283.800,201.800 283.800 C 179.800 283.800,164.500 283.917,167.800 284.061 M114.405 289.506 C 114.409 289.755,117.758 292.274,119.475 293.320 C 120.948 294.217,119.669 293.057,117.200 291.255 C 115.660 290.132,114.402 289.345,114.405 289.506 M121.200 294.367 C 122.163 295.152,122.800 295.408,122.800 295.010 C 122.800 294.906,122.215 294.535,121.500 294.186 L 120.200 293.552 121.200 294.367 M280.274 294.880 C 278.994 295.541,278.032 296.165,278.134 296.267 C 278.377 296.510,282.267 294.539,282.595 294.008 C 282.909 293.501,283.047 293.448,280.274 294.880 M123.776 295.813 C 124.204 296.136,124.744 296.394,124.976 296.387 C 125.209 296.380,125.051 296.110,124.624 295.787 C 124.196 295.464,123.656 295.206,123.424 295.213 C 123.191 295.220,123.349 295.490,123.776 295.813 M125.600 296.615 C 125.600 296.965,128.458 298.075,128.710 297.823 C 128.833 297.701,128.835 297.600,128.716 297.600 C 128.596 297.600,127.846 297.328,127.049 296.995 C 126.252 296.662,125.600 296.491,125.600 296.615 M275.800 297.178 C 274.920 297.595,274.341 297.950,274.513 297.968 C 274.983 298.016,277.600 296.874,277.600 296.620 C 277.600 296.323,277.619 296.317,275.800 297.178 M129.420 298.363 C 129.850 298.773,132.878 299.655,133.099 299.434 C 133.231 299.303,129.734 298.000,129.249 298.000 C 129.134 298.000,129.211 298.163,129.420 298.363 M272.200 298.620 L 271.000 299.205 272.200 298.974 C 272.860 298.847,273.571 298.576,273.780 298.372 C 274.342 297.822,273.600 297.939,272.200 298.620 M134.600 300.198 C 135.260 300.509,136.250 300.757,136.800 300.748 L 137.800 300.731 136.800 300.431 C 136.250 300.265,135.260 300.018,134.600 299.881 L 133.400 299.633 134.600 300.198 M267.200 300.200 C 265.952 300.562,265.706 300.728,266.400 300.743 C 266.950 300.754,267.940 300.517,268.600 300.214 C 270.102 299.527,269.543 299.521,267.200 300.200 M139.265 301.395 C 140.070 301.691,141.780 302.034,143.065 302.156 C 145.200 302.360,145.108 302.313,142.000 301.618 C 137.980 300.719,137.269 300.661,139.265 301.395 M261.800 301.434 C 258.292 302.208,257.928 302.386,260.380 302.131 C 261.578 302.005,263.198 301.668,263.980 301.380 C 265.757 300.725,264.918 300.746,261.800 301.434 M146.800 302.836 C 147.350 303.066,151.400 303.319,155.800 303.398 L 163.800 303.543 157.200 303.205 C 153.570 303.019,149.520 302.766,148.200 302.643 C 146.311 302.466,146.013 302.507,146.800 302.836 M248.600 303.019 C 244.640 303.293,239.240 303.570,236.600 303.635 C 233.499 303.710,232.650 303.807,234.200 303.909 C 237.536 304.128,255.422 303.246,256.509 302.809 C 257.597 302.371,258.159 302.357,248.600 303.019 M167.700 303.898 C 169.845 303.970,173.355 303.970,175.500 303.898 C 177.645 303.826,175.890 303.767,171.600 303.767 C 167.310 303.767,165.555 303.826,167.700 303.898 " stroke="none" fill="#ba40fc" fill-rule="evenodd"></path></g></svg>