<?xml version="1.0" standalone="no"?>
<!DOCTYPE svg PUBLIC "-//W3C//DTD SVG 20010904//EN"
 "http://www.w3.org/TR/2001/REC-SVG-20010904/DTD/svg10.dtd">
<svg version="1.0" xmlns="http://www.w3.org/2000/svg"
 width="254.000000pt" height="255.000000pt" viewBox="0 0 254.000000 255.000000"
 preserveAspectRatio="xMidYMid meet">
<metadata>
Created by potrace 1.16, written by Peter Selinger 2001-2019
</metadata>
<g transform="translate(0.000000,255.000000) scale(0.100000,-0.100000)"
fill="#000000" stroke="none">
<path d="M11 2536 c-8 -10 -10 -350 -9 -1272 l3 -1259 1268 -3 1267 -2 0 1275
0 1275 -1259 0 c-1048 0 -1260 -2 -1270 -14z m2459 -1266 l0 -1190 -1190 0
-1190 0 0 1190 0 1190 1190 0 1190 0 0 -1190z"/>
<path d="M1375 1638 c-3 -7 -6 -260 -7 -563 l-3 -550 -27 -57 c-67 -143 -213
-208 -368 -162 -102 30 -200 158 -200 260 0 55 -42 81 -75 48 -13 -14 -15 -27
-10 -68 12 -87 43 -153 102 -216 187 -203 507 -153 626 98 l32 67 3 564 c2
415 0 567 -9 577 -14 17 -58 18 -64 2z"/>
<path d="M1841 1634 c-98 -35 -183 -114 -228 -209 -24 -52 -28 -72 -28 -155 0
-83 4 -103 28 -156 34 -73 111 -152 184 -189 37 -18 81 -29 145 -36 120 -13
203 -51 252 -115 147 -192 29 -462 -210 -482 -157 -12 -283 90 -316 258 -14
69 -35 93 -66 74 -42 -27 -12 -175 54 -266 62 -83 157 -137 269 -152 187 -25
378 119 415 314 26 137 -35 292 -148 373 -66 48 -123 67 -225 78 -59 6 -103
17 -135 33 -222 114 -221 417 3 534 74 38 178 38 257 -1 92 -45 154 -131 165
-230 7 -61 17 -77 49 -77 38 0 48 32 34 104 -24 126 -105 232 -218 284 -72 34
-211 42 -281 16z"/>
</g>
</svg>
