<svg id="svg" version="1.1" xmlns="http://www.w3.org/2000/svg" xmlns:xlink="http://www.w3.org/1999/xlink" width="400" height="406.60247592847315" viewBox="0, 0, 400,406.60247592847315"><g id="svgg"><path id="path0" d="M0.000 194.200 L 0.000 388.400 7.800 388.400 L 15.600 388.400 15.600 397.400 L 15.600 406.400 207.800 406.400 L 400.000 406.400 400.000 211.400 L 400.000 16.400 394.000 16.400 L 388.000 16.400 388.000 8.200 L 388.000 0.000 194.000 0.000 L 0.000 0.000 0.000 194.200 M379.000 193.600 L 379.000 379.400 193.200 379.400 L 7.400 379.400 7.298 194.000 C 7.241 92.030,7.281 8.375,7.385 8.100 C 7.537 7.700,44.927 7.619,193.288 7.700 L 379.000 7.800 379.000 193.600 " stroke="none" fill="#040404" fill-rule="evenodd"></path><path id="path1" d="M7.600 193.600 L 7.600 378.800 193.200 378.800 L 378.800 378.800 378.800 193.600 L 378.800 8.400 193.200 8.400 L 7.600 8.400 7.600 193.600 M154.990 131.997 C 171.270 136.653,176.681 156.017,164.986 167.769 C 151.334 181.489,128.252 172.083,128.252 152.800 C 128.252 138.736,141.772 128.217,154.990 131.997 M272.200 187.778 C 285.296 190.475,291.983 194.300,297.027 201.980 C 299.493 205.734,302.398 212.622,303.025 216.200 C 303.179 217.080,303.457 218.095,303.643 218.455 C 305.112 221.309,305.355 227.863,305.488 268.300 L 305.619 308.000 287.009 308.000 L 268.400 308.000 268.400 275.145 C 268.400 241.221,268.121 235.028,266.412 231.000 C 263.753 224.736,261.877 222.785,256.498 220.694 C 252.007 218.947,242.077 219.785,238.138 222.241 C 235.056 224.164,231.200 228.205,231.200 229.512 C 231.200 229.662,230.853 230.688,230.428 231.792 C 228.178 237.643,228.236 236.592,228.094 273.700 L 227.963 308.000 209.381 308.000 L 190.800 308.000 190.800 248.796 L 190.800 189.592 208.500 189.696 L 226.200 189.800 226.400 197.750 L 226.600 205.700 228.103 203.517 C 236.926 190.698,255.020 184.240,272.200 187.778 M168.301 248.900 L 168.403 308.000 149.601 308.000 L 130.800 308.000 130.800 249.067 C 130.800 216.653,130.922 190.012,131.071 189.863 C 131.219 189.714,139.634 189.639,149.771 189.696 L 168.200 189.800 168.301 248.900 " stroke="none" fill="#2494bc" fill-rule="evenodd"></path><path id="path2" d="M146.000 131.988 C 129.113 135.229,122.713 155.562,134.790 167.602 C 149.461 182.228,173.943 169.417,170.428 148.953 C 168.518 137.836,157.045 129.868,146.000 131.988 M255.800 187.591 C 244.825 189.180,235.101 194.791,228.924 203.100 C 225.965 207.081,226.000 207.143,226.000 198.000 L 226.000 190.000 208.599 190.000 L 191.197 190.000 191.299 248.900 L 191.400 307.800 209.273 307.904 L 227.146 308.008 227.298 275.304 C 227.476 237.081,227.750 234.277,231.978 227.436 C 237.480 218.533,254.568 216.326,262.127 223.542 C 268.369 229.502,268.800 232.884,268.800 275.888 L 268.800 308.000 287.023 308.000 L 305.245 308.000 305.101 267.500 C 304.945 223.339,305.010 224.659,302.546 215.600 C 299.001 202.569,292.066 194.195,282.000 190.790 C 273.478 187.908,262.698 186.592,255.800 187.591 M131.600 249.000 L 131.600 308.000 149.600 308.000 L 167.600 308.000 167.600 249.000 L 167.600 190.000 149.600 190.000 L 131.600 190.000 131.600 249.000 " stroke="none" fill="#fbfbfb" fill-rule="evenodd"></path><path id="path3" d="M7.385 8.100 C 7.281 8.375,7.241 92.030,7.298 194.000 L 7.400 379.400 193.200 379.400 L 379.000 379.400 379.000 193.600 L 379.000 7.800 193.288 7.700 C 44.927 7.619,7.537 7.700,7.385 8.100 M378.800 193.600 L 378.800 378.800 193.200 378.800 L 7.600 378.800 7.600 193.600 L 7.600 8.400 193.200 8.400 L 378.800 8.400 378.800 193.600 " stroke="none" fill="#19718c" fill-rule="evenodd"></path><path id="path4" d="M145.893 131.536 C 145.504 131.690,147.284 131.815,149.849 131.815 C 152.414 131.815,154.082 131.695,153.556 131.548 C 152.284 131.191,146.786 131.183,145.893 131.536 M142.742 132.389 C 137.048 134.110,129.102 142.316,129.219 146.354 C 129.229 146.709,129.565 146.190,129.965 145.200 C 132.467 139.011,136.166 135.429,142.600 132.962 C 144.888 132.085,144.981 131.712,142.742 132.389 M155.800 132.598 C 156.460 132.909,157.193 133.172,157.429 133.182 C 159.502 133.269,166.013 138.518,167.418 141.234 C 167.770 141.916,168.160 142.373,168.284 142.250 C 169.717 140.816,160.052 133.085,155.800 132.264 L 154.600 132.033 155.800 132.598 M169.095 144.404 C 169.441 145.287,169.797 145.936,169.886 145.848 C 170.078 145.655,168.923 142.800,168.653 142.800 C 168.549 142.800,168.748 143.522,169.095 144.404 M170.301 148.000 C 170.670 150.223,170.688 154.734,170.337 157.400 L 170.074 159.400 170.666 157.600 C 171.346 155.531,171.195 148.202,170.446 146.946 C 170.100 146.365,170.068 146.598,170.301 148.000 M128.195 150.910 C 127.946 153.237,128.468 157.819,129.045 158.365 C 129.182 158.494,129.155 157.970,128.985 157.200 C 128.816 156.430,128.687 154.135,128.699 152.100 C 128.726 147.777,128.570 147.409,128.195 150.910 M129.231 159.200 C 129.108 162.376,135.068 169.507,139.884 171.947 C 142.610 173.328,142.420 172.912,139.600 171.324 C 135.094 168.789,131.885 165.001,129.665 159.600 C 129.439 159.050,129.244 158.870,129.231 159.200 M166.881 165.006 C 166.186 165.993,165.748 166.796,165.908 166.791 C 166.292 166.780,168.536 163.603,168.316 163.382 C 168.222 163.289,167.576 164.019,166.881 165.006 M162.990 169.211 C 162.586 169.658,160.803 170.760,159.028 171.661 C 157.252 172.562,156.311 173.179,156.935 173.033 C 158.951 172.561,164.000 169.382,164.000 168.584 C 164.000 168.231,163.719 168.405,162.990 169.211 M144.200 173.694 C 145.297 174.348,153.935 174.358,155.000 173.707 C 155.666 173.299,155.466 173.266,153.800 173.509 C 152.700 173.669,150.810 173.800,149.600 173.800 C 148.390 173.800,146.500 173.669,145.400 173.509 C 143.759 173.270,143.544 173.303,144.200 173.694 M254.869 187.283 C 251.624 187.874,252.632 188.051,256.431 187.558 C 258.284 187.317,262.140 187.210,265.000 187.320 C 268.328 187.448,269.552 187.401,268.400 187.190 C 265.972 186.744,257.508 186.803,254.869 187.283 M249.600 188.488 C 248.830 188.716,248.383 188.971,248.606 189.054 C 248.829 189.136,249.819 188.951,250.806 188.641 C 251.793 188.332,252.240 188.078,251.800 188.076 C 251.360 188.074,250.370 188.259,249.600 188.488 M274.200 188.608 C 275.300 188.925,276.470 189.183,276.800 189.180 C 278.106 189.170,276.198 188.499,274.200 188.266 L 272.200 188.032 274.200 188.608 M131.071 189.863 C 130.617 190.316,130.746 308.000,131.200 308.000 C 131.465 308.000,131.600 288.067,131.600 249.000 L 131.600 190.000 149.600 190.000 L 167.600 190.000 167.600 249.000 C 167.600 288.196,167.735 308.000,168.001 308.000 C 168.268 308.000,168.369 288.230,168.301 248.900 L 168.200 189.800 149.771 189.696 C 139.634 189.639,131.219 189.714,131.071 189.863 M190.800 248.796 C 190.800 281.358,190.935 308.000,191.100 308.000 C 191.265 308.000,191.354 281.450,191.297 249.000 L 191.195 190.000 208.597 190.000 L 226.000 190.000 226.000 198.000 C 226.000 207.143,225.965 207.081,228.924 203.100 C 232.761 197.940,238.396 193.438,244.084 190.991 C 245.561 190.355,246.690 189.756,246.593 189.659 C 246.281 189.348,241.486 191.659,238.600 193.512 C 235.253 195.661,230.185 200.491,228.103 203.517 L 226.600 205.700 226.400 197.750 L 226.200 189.800 208.500 189.696 L 190.800 189.592 190.800 248.796 M279.600 189.958 C 279.930 190.142,280.740 190.399,281.400 190.530 L 282.600 190.767 281.400 190.202 C 280.050 189.565,278.523 189.359,279.600 189.958 M283.200 191.045 C 283.530 191.182,284.835 191.810,286.100 192.441 C 287.365 193.072,288.400 193.518,288.400 193.432 C 288.400 193.078,284.859 191.235,283.773 191.024 C 283.128 190.898,282.870 190.908,283.200 191.045 M292.255 197.029 C 294.231 198.993,296.441 201.646,297.167 202.924 C 297.892 204.202,298.578 205.155,298.691 205.042 C 299.388 204.346,292.671 196.260,289.631 194.135 C 289.098 193.763,290.279 195.065,292.255 197.029 M299.416 207.000 C 299.795 207.880,300.468 209.548,300.912 210.707 C 301.356 211.866,301.795 212.739,301.888 212.645 C 302.115 212.418,299.660 206.307,299.138 205.800 C 298.911 205.580,299.036 206.120,299.416 207.000 M302.234 214.400 C 302.647 216.546,303.234 217.707,302.942 215.800 C 302.808 214.920,302.533 213.930,302.331 213.600 C 302.093 213.209,302.059 213.487,302.234 214.400 M303.437 219.400 C 303.972 222.777,304.400 223.950,304.184 221.447 C 304.072 220.153,303.801 218.803,303.582 218.447 C 303.297 217.984,303.256 218.256,303.437 219.400 M245.600 219.594 C 244.490 219.762,245.819 219.854,249.070 219.834 C 251.968 219.815,254.038 219.678,253.670 219.528 C 252.835 219.189,248.004 219.228,245.600 219.594 M240.363 220.756 C 236.952 222.091,232.835 225.531,231.616 228.065 L 231.166 229.000 231.883 228.072 C 234.872 224.201,237.887 221.897,241.261 220.908 C 242.327 220.596,243.200 220.263,243.200 220.170 C 243.200 219.836,242.171 220.049,240.363 220.756 M256.000 220.487 C 259.527 222.014,260.800 222.746,262.400 224.168 L 264.200 225.769 262.600 224.037 C 261.070 222.381,256.863 219.971,255.600 220.027 C 255.270 220.042,255.450 220.249,256.000 220.487 M305.104 264.038 C 305.161 284.147,305.259 302.310,305.320 304.400 C 305.382 306.490,305.460 290.740,305.493 269.400 C 305.527 248.060,305.429 229.897,305.277 229.038 C 305.125 228.179,305.047 243.929,305.104 264.038 M265.622 229.100 C 265.843 229.705,266.113 230.451,266.221 230.757 C 266.330 231.064,266.515 231.218,266.633 231.100 C 266.872 230.862,265.762 228.000,265.430 228.000 C 265.315 228.000,265.401 228.495,265.622 229.100 M230.444 230.444 C 229.862 232.114,230.141 232.392,230.800 230.800 C 231.079 230.126,231.214 229.481,231.100 229.367 C 230.986 229.253,230.691 229.738,230.444 230.444 M267.053 233.644 C 267.177 234.879,267.436 236.499,267.630 237.244 C 267.903 238.296,267.937 238.062,267.782 236.195 C 267.672 234.873,267.412 233.253,267.204 232.595 C 266.910 231.664,266.877 231.896,267.053 233.644 M229.251 233.860 C 228.651 236.157,228.261 238.631,228.537 238.377 C 228.838 238.100,229.997 232.664,229.797 232.464 C 229.718 232.384,229.472 233.012,229.251 233.860 M268.093 240.000 C 268.093 240.770,268.175 241.085,268.276 240.700 C 268.376 240.315,268.376 239.685,268.276 239.300 C 268.175 238.915,268.093 239.230,268.093 240.000 M227.811 240.679 C 227.333 243.259,227.086 308.000,227.554 308.000 C 227.878 308.000,228.464 239.990,228.146 239.279 C 228.117 239.213,227.966 239.843,227.811 240.679 M268.591 275.200 C 268.591 293.350,268.640 300.775,268.700 291.700 C 268.760 282.625,268.760 267.775,268.700 258.700 C 268.640 249.625,268.591 257.050,268.591 275.200 " stroke="none" fill="#75c0d8" fill-rule="evenodd"></path></g></svg>