<?xml version="1.0" standalone="no"?>
<!DOCTYPE svg PUBLIC "-//W3C//DTD SVG 20010904//EN"
 "http://www.w3.org/TR/2001/REC-SVG-20010904/DTD/svg10.dtd">
<svg version="1.0" xmlns="http://www.w3.org/2000/svg"
 width="300.000000pt" height="298.000000pt" viewBox="0 0 300.000000 298.000000"
 preserveAspectRatio="xMidYMid meet">
<metadata>
Created by potrace 1.16, written by Peter Selinger 2001-2019
</metadata>
<g transform="translate(0.000000,298.000000) scale(0.100000,-0.100000)"
fill="#000000" stroke="none">
<path d="M1342 2660 c-142 -37 -276 -134 -358 -258 -135 -203 -131 -499 10
-689 85 -115 186 -191 315 -235 96 -33 286 -33 382 0 228 79 381 262 419 503
22 138 -15 303 -96 424 -47 72 -148 164 -223 204 -130 69 -304 89 -449 51z"/>
<path d="M970 1453 c-79 -52 -200 -176 -253 -259 -92 -142 -147 -320 -147
-476 0 -104 15 -141 82 -204 52 -49 92 -74 176 -108 284 -114 800 -140 1154
-57 182 43 289 91 366 165 68 64 82 100 82 204 0 263 -143 542 -363 708 -96
72 -95 72 -163 26 -238 -161 -566 -162 -808 -1 -32 21 -61 39 -65 39 -3 0 -31
-17 -61 -37z"/>
</g>
</svg>
