<?xml version="1.0" standalone="no"?>
<!DOCTYPE svg PUBLIC "-//W3C//DTD SVG 20010904//EN"
 "http://www.w3.org/TR/2001/REC-SVG-20010904/DTD/svg10.dtd">
<svg version="1.0" xmlns="http://www.w3.org/2000/svg"
 width="201.000000pt" height="200.000000pt" viewBox="0 0 201.000000 200.000000"
 preserveAspectRatio="xMidYMid meet">
<metadata>
Created by potrace 1.16, written by Peter Selinger 2001-2019
</metadata>
<g transform="translate(0.000000,200.000000) scale(0.100000,-0.100000)"
fill="#000000" stroke="none">
<path d="M742 1979 c-45 -13 -108 -79 -121 -126 -6 -21 -11 -106 -11 -190 l0
-152 -233 -3 -234 -3 -40 -27 c-22 -15 -51 -44 -64 -65 l-24 -38 0 -346 0
-345 27 -41 c15 -22 44 -51 65 -64 35 -22 51 -24 190 -27 l152 -4 3 -211 c3
-202 4 -214 27 -250 12 -21 39 -49 59 -62 l37 -25 355 0 355 0 37 25 c20 13
47 41 59 62 22 35 24 50 27 210 l4 172 231 3 c224 3 233 4 270 27 21 13 50 42
65 64 l27 41 0 346 0 346 -27 41 c-15 22 -44 51 -65 64 -35 22 -51 24 -190 27
l-152 4 -3 211 c-3 203 -4 214 -27 250 -13 21 -42 50 -64 65 l-40 27 -331 2
c-192 1 -345 -2 -364 -8z m710 -107 l33 -32 0 -370 0 -370 -33 -32 -32 -33
-418 -5 -419 -5 -40 -27 c-22 -15 -51 -44 -64 -65 -22 -34 -24 -52 -27 -171
l-4 -133 -144 3 -144 3 -32 33 -33 32 0 330 0 330 33 32 32 33 477 5 c439 5
477 6 487 23 8 12 8 22 0 35 -10 15 -34 17 -223 20 l-212 2 3 164 c3 159 4
165 28 191 14 15 34 31 45 36 11 4 163 7 337 6 l318 -2 32 -33z m440 -560 l33
-32 0 -330 0 -330 -33 -32 -32 -33 -477 -5 c-439 -5 -477 -6 -487 -23 -8 -12
-8 -22 0 -35 10 -15 34 -17 223 -20 l212 -2 -3 -165 -3 -165 -33 -32 -32 -33
-330 0 -330 0 -32 33 -33 32 0 370 0 370 33 32 32 33 418 5 419 5 40 27 c22
15 51 44 64 65 22 34 24 52 27 171 l4 133 144 -3 144 -3 32 -33z"/>
<path d="M835 1765 c-16 -15 -25 -36 -25 -55 0 -19 9 -40 25 -55 15 -16 36
-25 55 -25 19 0 40 9 55 25 16 15 25 36 25 55 0 19 -9 40 -25 55 -15 16 -36
25 -55 25 -19 0 -40 -9 -55 -25z"/>
<path d="M1075 325 c-50 -49 -15 -135 55 -135 41 0 80 39 80 80 0 41 -39 80
-80 80 -19 0 -40 -9 -55 -25z"/>
</g>
</svg>
