<?xml version="1.0" standalone="no"?>
<!DOCTYPE svg PUBLIC "-//W3C//DTD SVG 20010904//EN"
 "http://www.w3.org/TR/2001/REC-SVG-20010904/DTD/svg10.dtd">
<svg version="1.0" xmlns="http://www.w3.org/2000/svg"
 width="233.000000pt" height="258.000000pt" viewBox="0 0 233.000000 258.000000"
 preserveAspectRatio="xMidYMid meet">
<metadata>
Created by potrace 1.16, written by Peter Selinger 2001-2019
</metadata>
<g transform="translate(0.000000,258.000000) scale(0.100000,-0.100000)"
fill="#000000" stroke="none">
<path d="M1083 2546 c-61 -20 -103 -49 -164 -113 -65 -68 -129 -173 -169 -275
l-29 -73 -43 2 c-24 2 -110 4 -193 5 -133 2 -157 0 -213 -20 -144 -51 -218
-134 -237 -262 -16 -108 51 -285 164 -434 l59 -79 -62 -78 c-112 -142 -185
-309 -186 -425 0 -108 71 -218 173 -269 104 -50 260 -67 419 -45 40 6 81 12
92 13 15 2 26 -17 55 -89 72 -178 190 -327 298 -377 67 -30 179 -30 246 0 108
50 226 199 298 377 29 72 40 91 55 89 11 -1 52 -7 92 -13 152 -21 326 -4 415
42 56 28 123 93 146 142 67 138 9 348 -155 555 l-62 78 59 79 c113 149 180
326 164 434 -19 128 -93 211 -237 262 -56 20 -80 22 -213 20 -82 -1 -169 -3
-193 -5 l-43 -2 -32 81 c-68 168 -190 320 -294 366 -58 26 -154 32 -210 14z
m156 -156 c60 -30 128 -114 183 -227 28 -57 48 -109 45 -116 -2 -7 -31 -21
-63 -31 -33 -10 -98 -33 -146 -52 l-88 -35 -87 35 c-49 19 -114 42 -147 52
-32 10 -61 24 -63 31 -9 23 93 216 143 272 79 88 147 110 223 71z m-640 -450
c35 -5 65 -11 68 -14 2 -2 -5 -51 -16 -108 -11 -56 -23 -126 -27 -155 -6 -46
-11 -55 -48 -81 -22 -16 -78 -62 -124 -101 -45 -40 -87 -69 -92 -66 -22 13
-102 137 -136 209 -97 205 -9 321 246 325 36 0 94 -4 129 -9z m1433 -15 c133
-47 158 -156 74 -323 -32 -63 -120 -192 -131 -192 -3 0 -42 32 -88 71 -45 39
-101 85 -124 102 -24 17 -43 38 -43 48 0 10 -11 79 -25 155 -14 75 -24 139
-21 141 25 26 284 24 358 -2z m-1128 -55 c31 -10 61 -22 67 -26 6 -4 -15 -20
-47 -38 -33 -17 -77 -42 -98 -55 l-39 -25 7 45 c12 76 26 119 40 119 7 0 38
-9 70 -20z m376 -161 c54 -28 142 -79 196 -113 97 -60 99 -62 106 -106 8 -56
8 -375 -1 -414 -5 -23 -27 -41 -115 -96 -60 -38 -151 -90 -202 -117 l-94 -48
-94 48 c-51 27 -142 79 -202 117 -88 55 -110 73 -115 96 -9 39 -9 358 -1 414
7 43 9 46 99 102 111 70 293 168 312 168 7 0 57 -23 111 -51z m-682 -469 l-3
-62 -64 58 -64 58 64 58 64 57 3 -54 c2 -30 2 -82 0 -115z m1267 61 c4 -7 -47
-59 -102 -105 l-23 -19 0 117 0 118 60 -52 c33 -29 62 -55 65 -59z m-1459
-152 c16 -17 70 -64 120 -105 l91 -74 7 -66 c4 -36 16 -108 26 -161 11 -52 20
-96 20 -98 0 -10 -189 -27 -259 -23 -143 9 -231 60 -247 146 -10 50 17 149 61
228 41 73 125 183 141 184 5 0 23 -14 40 -31z m1602 0 c51 -60 122 -173 144
-229 13 -33 22 -79 22 -117 1 -77 -18 -107 -96 -146 -45 -23 -74 -29 -149 -34
-78 -4 -244 9 -256 21 -2 1 6 46 17 99 10 53 22 125 26 161 l7 66 91 74 c50
41 104 88 120 105 17 17 34 31 39 31 4 0 20 -14 35 -31z m-1036 -399 c4 0 8
-4 8 -9 0 -11 -149 -63 -160 -56 -4 3 -13 35 -20 72 -6 38 -14 76 -16 85 -4
12 22 1 87 -37 51 -30 97 -55 101 -55z m572 25 c-9 -44 -19 -83 -23 -87 -8 -9
-161 40 -161 52 0 4 12 13 28 19 15 7 59 31 97 55 39 24 71 43 72 42 1 -1 -5
-37 -13 -81z m-292 -159 c46 -19 116 -44 156 -57 84 -27 84 -16 12 -165 -74
-152 -167 -244 -250 -244 -83 0 -176 92 -250 244 -72 151 -74 137 27 170 48
16 116 41 152 57 37 16 67 28 68 29 2 0 40 -15 85 -34z"/>
<path d="M1075 1491 c-148 -69 -182 -266 -64 -378 147 -139 389 -36 389 167 0
94 -57 179 -142 214 -50 21 -134 20 -183 -3z"/>
</g>
</svg>
