<svg id="svg" version="1.1" xmlns="http://www.w3.org/2000/svg" xmlns:xlink="http://www.w3.org/1999/xlink" width="400" height="409.3793103448276" viewBox="0, 0, 400,409.3793103448276"><g id="svgg"><path id="path0" d="M0.000 195.000 L 0.000 390.000 7.600 390.000 L 15.200 390.000 15.200 399.600 L 15.200 409.200 207.600 409.200 L 400.000 409.200 400.000 213.000 L 400.000 16.800 394.400 16.800 L 388.800 16.800 388.800 8.400 L 388.800 0.000 194.400 0.000 L 0.000 0.000 0.000 195.000 M379.500 194.700 L 379.400 381.000 193.200 381.000 L 7.000 381.000 6.900 194.700 L 6.799 8.400 193.200 8.400 L 379.601 8.400 379.500 194.700 " stroke="none" fill="#040404" fill-rule="evenodd"></path><path id="path1" d="M72.494 72.581 C 73.336 73.864,74.501 75.544,78.055 80.600 C 78.829 81.700,80.340 83.860,81.415 85.400 C 82.489 86.940,86.196 92.250,89.652 97.200 C 93.108 102.150,96.536 107.061,97.268 108.114 C 98.001 109.167,99.230 110.913,100.000 111.995 C 100.770 113.077,102.379 115.365,103.576 117.081 C 104.772 118.796,106.452 121.190,107.308 122.400 C 108.165 123.610,111.177 127.930,114.003 132.000 C 119.834 140.398,120.203 140.926,125.607 148.600 C 127.776 151.680,130.147 155.061,130.875 156.114 C 131.604 157.167,132.830 158.916,133.600 160.000 C 134.370 161.084,135.597 162.833,136.326 163.886 C 137.055 164.939,140.301 169.580,143.539 174.200 C 146.777 178.820,150.428 184.049,151.653 185.819 C 153.760 188.864,154.792 190.342,158.275 195.300 C 159.087 196.455,160.462 198.436,161.332 199.702 L 162.914 202.003 161.175 204.502 C 160.219 205.876,158.841 207.857,158.112 208.905 C 157.384 209.952,156.062 211.842,155.174 213.105 C 153.704 215.198,147.948 223.450,141.775 232.317 C 140.441 234.232,138.659 236.781,137.815 237.981 C 136.971 239.180,135.280 241.610,134.057 243.381 C 132.834 245.151,130.892 247.950,129.742 249.600 C 128.592 251.250,127.088 253.410,126.401 254.400 C 125.713 255.390,123.407 258.673,121.275 261.695 C 119.144 264.717,116.410 268.643,115.200 270.420 C 113.990 272.196,112.370 274.532,111.600 275.611 C 110.830 276.689,109.602 278.433,108.872 279.486 C 108.142 280.539,105.034 285.000,101.966 289.400 C 98.898 293.800,94.906 299.529,93.094 302.131 C 91.282 304.732,89.170 307.736,88.400 308.806 C 87.630 309.875,86.010 312.213,84.800 314.000 C 83.590 315.787,81.970 318.132,81.200 319.211 C 80.430 320.289,79.203 322.033,78.474 323.086 C 77.745 324.139,75.990 326.655,74.574 328.678 C 73.158 330.700,72.000 332.455,72.000 332.578 C 72.000 332.700,88.875 332.797,109.500 332.794 L 147.000 332.787 151.400 326.505 C 153.820 323.049,156.801 318.777,158.024 317.011 C 159.247 315.245,160.912 312.855,161.724 311.700 C 162.536 310.545,163.830 308.700,164.600 307.600 C 165.370 306.500,166.664 304.655,167.476 303.500 C 168.288 302.345,169.953 299.951,171.176 298.180 C 172.399 296.408,174.986 292.718,176.923 289.980 C 178.861 287.241,184.092 279.780,188.548 273.400 C 193.004 267.020,197.464 260.640,198.459 259.222 C 200.849 255.814,200.548 255.713,204.412 261.227 C 206.275 263.886,208.430 266.941,209.200 268.016 C 209.970 269.092,211.199 270.833,211.931 271.886 C 215.267 276.685,218.072 280.696,221.400 285.425 C 223.380 288.238,226.001 291.993,227.224 293.770 C 229.332 296.832,230.441 298.419,233.879 303.300 C 234.693 304.455,238.998 310.620,243.447 317.000 C 247.895 323.380,252.211 329.545,253.037 330.700 L 254.540 332.800 292.116 332.800 L 329.692 332.800 328.972 331.700 C 328.575 331.095,326.170 327.623,323.626 323.984 C 321.082 320.345,317.290 314.890,315.200 311.862 C 313.110 308.834,310.770 305.478,310.000 304.405 C 309.230 303.332,307.372 300.687,305.872 298.527 C 303.630 295.301,295.299 283.358,289.600 275.200 C 288.908 274.210,286.658 270.970,284.600 268.000 C 279.735 260.980,278.571 259.312,276.400 256.251 C 275.410 254.855,272.080 250.077,269.000 245.632 C 265.920 241.188,262.770 236.669,262.000 235.590 C 260.521 233.518,259.401 231.910,255.600 226.400 C 252.346 221.684,251.149 219.971,248.048 215.600 C 246.566 213.510,244.477 210.540,243.407 209.000 C 242.337 207.460,240.863 205.347,240.131 204.304 C 238.356 201.776,238.086 202.447,244.526 193.385 C 245.675 191.769,254.067 179.758,256.473 176.286 C 257.203 175.233,258.430 173.484,259.200 172.399 C 259.970 171.315,261.824 168.666,263.321 166.514 C 268.555 158.983,278.357 144.996,278.677 144.600 C 278.855 144.380,279.738 143.120,280.639 141.800 C 282.995 138.351,290.207 128.006,294.685 121.653 C 296.799 118.654,299.156 115.300,299.923 114.200 C 300.690 113.100,303.575 108.960,306.335 105.000 C 309.095 101.040,312.745 95.820,314.446 93.400 C 318.123 88.170,318.945 86.994,323.677 80.200 C 325.669 77.340,327.922 74.145,328.683 73.100 L 330.068 71.200 292.120 71.200 L 254.171 71.200 249.786 77.434 C 245.636 83.333,242.521 87.790,239.526 92.114 C 238.797 93.167,237.570 94.910,236.800 95.988 C 236.030 97.066,231.800 103.119,227.400 109.439 C 223.000 115.759,218.627 122.025,217.682 123.365 C 216.737 124.704,214.974 127.240,213.764 129.000 C 212.553 130.760,210.435 133.820,209.055 135.800 C 207.676 137.780,205.671 140.660,204.600 142.200 C 201.426 146.761,201.073 147.200,200.568 147.200 C 200.302 147.200,199.997 146.975,199.889 146.700 C 199.781 146.425,195.725 140.530,190.875 133.600 C 186.025 126.670,181.492 120.190,180.802 119.200 C 180.111 118.210,177.407 114.340,174.792 110.600 C 172.177 106.860,168.814 102.039,167.318 99.886 C 165.823 97.734,163.970 95.085,163.200 94.001 C 162.430 92.916,161.203 91.167,160.474 90.114 C 159.745 89.061,157.135 85.320,154.673 81.800 C 152.212 78.280,149.569 74.460,148.799 73.310 L 147.400 71.221 109.494 71.210 L 71.588 71.200 72.494 72.581 M140.541 88.900 C 141.321 90.055,143.666 93.430,145.751 96.400 C 147.836 99.370,150.110 102.610,150.803 103.600 C 152.685 106.286,161.351 118.716,162.874 120.914 C 163.603 121.967,164.830 123.716,165.600 124.800 C 166.370 125.884,167.597 127.633,168.326 128.686 C 169.938 131.012,180.372 145.947,185.600 153.412 C 187.690 156.397,189.797 159.443,190.283 160.183 L 191.166 161.527 189.906 163.264 C 189.213 164.219,187.723 166.350,186.595 168.000 C 182.617 173.819,179.838 177.818,178.626 179.468 C 177.952 180.386,176.410 182.589,175.200 184.364 C 173.990 186.140,172.801 187.594,172.558 187.596 C 172.133 187.600,168.836 183.126,162.981 174.600 C 161.470 172.400,158.575 168.260,156.547 165.400 C 154.520 162.540,152.293 159.390,151.600 158.400 C 149.950 156.045,135.532 135.410,133.014 131.800 C 130.826 128.663,129.103 126.201,126.925 123.100 C 126.114 121.945,121.808 115.780,117.357 109.400 C 108.039 96.043,107.553 95.349,104.369 90.854 C 103.066 89.014,102.000 87.349,102.000 87.154 C 102.000 86.954,110.048 86.800,120.561 86.800 L 139.122 86.800 140.541 88.900 M299.338 87.100 C 299.478 87.327,290.372 100.716,288.524 103.000 C 288.346 103.220,287.469 104.480,286.575 105.800 C 285.682 107.120,284.287 109.145,283.475 110.300 C 282.664 111.455,281.336 113.345,280.524 114.500 C 279.712 115.655,278.047 118.049,276.824 119.820 C 275.601 121.592,273.014 125.282,271.077 128.020 C 269.139 130.759,263.908 138.220,259.452 144.600 C 254.996 150.980,250.686 157.145,249.875 158.300 C 246.321 163.360,245.354 164.745,243.257 167.781 C 242.034 169.551,239.406 173.292,237.417 176.093 C 235.428 178.894,232.810 182.627,231.600 184.389 C 228.848 188.396,229.046 188.429,225.534 183.388 C 223.920 181.072,221.064 176.977,219.186 174.288 C 213.200 165.718,211.310 162.953,210.847 162.088 C 210.449 161.343,210.974 160.417,215.364 154.123 C 218.096 150.205,220.932 146.139,221.666 145.086 C 222.400 144.033,223.630 142.284,224.400 141.200 C 225.858 139.147,226.079 138.830,232.203 130.000 C 235.897 124.675,236.867 123.285,242.961 114.600 C 244.658 112.180,248.364 106.870,251.194 102.800 C 254.025 98.730,256.939 94.540,257.670 93.489 C 258.402 92.438,259.767 90.503,260.705 89.189 L 262.409 86.800 280.781 86.800 C 290.885 86.800,299.236 86.935,299.338 87.100 M202.061 177.100 C 202.917 178.379,208.756 186.763,216.559 197.918 C 217.682 199.522,218.767 201.078,218.971 201.375 C 219.343 201.916,218.755 202.873,213.554 210.200 C 212.461 211.740,210.641 214.350,209.510 216.000 C 204.761 222.928,201.128 227.800,200.713 227.800 C 200.323 227.800,197.936 224.640,193.528 218.286 C 192.798 217.233,191.570 215.484,190.800 214.400 C 190.030 213.316,188.804 211.567,188.075 210.514 C 187.346 209.461,185.771 207.201,184.575 205.492 C 181.897 201.665,181.841 202.307,185.270 197.458 C 186.848 195.226,189.064 192.050,190.194 190.400 C 191.324 188.750,192.946 186.410,193.800 185.200 C 194.654 183.990,196.329 181.560,197.523 179.800 C 200.920 174.791,200.632 174.963,202.061 177.100 M174.217 218.029 C 176.971 221.954,178.349 223.937,180.311 226.800 C 181.441 228.450,183.261 231.060,184.353 232.600 C 185.446 234.140,187.375 236.890,188.639 238.711 L 190.937 242.023 190.270 243.311 C 189.903 244.020,188.297 246.434,186.702 248.675 C 185.106 250.917,183.260 253.525,182.600 254.471 C 181.940 255.417,178.804 259.883,175.632 264.396 C 172.459 268.908,168.864 274.040,167.643 275.800 C 166.422 277.560,162.144 283.680,158.137 289.400 C 154.131 295.120,150.256 300.661,149.526 301.714 C 148.797 302.767,147.570 304.512,146.800 305.591 C 146.030 306.670,143.887 309.724,142.037 312.377 L 138.675 317.200 120.337 317.200 C 110.252 317.200,102.000 317.053,102.000 316.872 C 102.000 316.692,102.675 315.618,103.500 314.486 C 104.325 313.355,105.600 311.567,106.333 310.514 C 107.067 309.461,110.360 304.730,113.651 300.000 C 116.942 295.270,120.896 289.600,122.438 287.400 C 123.980 285.200,126.929 280.970,128.992 278.000 C 133.339 271.741,133.317 271.772,141.398 260.200 C 144.777 255.360,148.140 250.539,148.871 249.486 C 149.602 248.433,150.830 246.684,151.600 245.600 C 152.370 244.516,153.598 242.767,154.330 241.714 C 155.563 239.938,161.641 231.197,169.076 220.508 C 172.546 215.518,172.478 215.551,174.217 218.029 M230.064 217.103 C 230.429 217.706,231.995 220.000,233.544 222.200 C 235.093 224.400,237.350 227.640,238.560 229.400 C 239.769 231.160,241.457 233.590,242.310 234.800 C 246.689 241.010,249.182 244.579,259.025 258.717 C 260.359 260.632,262.083 263.100,262.856 264.200 C 264.200 266.113,265.764 268.365,269.867 274.300 C 270.893 275.785,272.052 277.450,272.442 278.000 C 273.957 280.137,280.817 289.893,282.005 291.600 C 282.694 292.590,284.942 295.830,287.000 298.800 C 292.924 307.348,293.321 307.918,294.800 309.991 C 297.173 313.318,299.393 316.551,299.533 316.883 C 299.607 317.058,291.327 317.199,281.133 317.197 L 262.600 317.195 261.942 316.097 C 261.580 315.494,260.826 314.370,260.266 313.600 C 259.706 312.830,255.290 306.530,250.452 299.600 C 239.679 284.168,240.023 284.658,235.193 277.800 C 233.024 274.720,230.653 271.339,229.925 270.286 C 229.196 269.233,227.970 267.484,227.200 266.400 C 226.430 265.316,225.203 263.567,224.474 262.514 C 220.722 257.097,218.223 253.523,214.485 248.231 C 210.852 243.087,210.423 242.305,210.822 241.558 C 211.071 241.093,213.270 237.897,215.709 234.456 C 219.854 228.608,221.565 226.163,226.600 218.892 C 228.827 215.676,229.112 215.529,230.064 217.103 " stroke="none" fill="#fafbfc" fill-rule="evenodd"></path><path id="path2" d="M7.200 194.600 L 7.200 380.400 193.200 380.400 L 379.201 380.400 379.100 194.700 L 379.000 9.000 193.100 8.900 L 7.200 8.799 7.200 194.600 M149.079 73.100 C 149.776 74.145,150.797 75.630,151.348 76.400 C 152.266 77.683,165.367 96.437,168.472 100.914 C 169.203 101.967,170.430 103.708,171.200 104.783 C 171.970 105.858,174.940 110.115,177.800 114.242 C 180.660 118.369,184.021 123.198,185.269 124.973 C 186.518 126.748,188.104 129.010,188.796 130.000 C 197.366 142.274,200.466 146.613,200.709 146.679 C 200.869 146.722,201.990 145.316,203.200 143.554 C 204.410 141.792,205.999 139.507,206.732 138.475 C 207.465 137.444,209.747 134.170,211.803 131.200 C 216.783 124.008,217.303 123.264,222.696 115.600 C 225.251 111.970,228.265 107.650,229.394 106.000 C 230.524 104.350,232.112 102.055,232.924 100.900 C 236.259 96.154,237.424 94.487,239.547 91.419 C 240.772 89.649,243.164 86.220,244.863 83.800 C 246.562 81.380,248.548 78.541,249.276 77.491 C 250.004 76.441,251.310 74.596,252.177 73.391 L 253.754 71.200 291.877 71.200 C 312.845 71.200,330.000 71.335,329.999 71.500 C 329.999 71.665,328.931 73.330,327.626 75.200 C 326.322 77.070,324.657 79.461,323.927 80.514 C 323.197 81.567,321.970 83.316,321.200 84.400 C 320.430 85.484,319.204 87.233,318.475 88.286 C 317.747 89.339,315.376 92.720,313.207 95.800 C 307.934 103.287,307.342 104.134,303.000 110.400 C 298.183 117.351,296.991 119.059,294.800 122.152 C 293.810 123.549,292.100 125.987,291.000 127.569 C 289.900 129.151,288.370 131.327,287.600 132.405 C 286.830 133.483,282.240 140.055,277.400 147.011 C 272.560 153.966,267.970 160.538,267.200 161.614 C 266.430 162.691,265.203 164.433,264.472 165.486 C 263.742 166.539,259.807 172.170,255.727 178.000 C 237.519 204.019,239.007 201.683,239.764 203.049 C 240.115 203.682,241.247 205.370,242.280 206.800 C 243.869 208.999,253.603 222.896,259.931 232.000 C 261.853 234.765,263.483 237.096,265.876 240.500 C 266.688 241.655,268.274 243.950,269.401 245.600 C 270.528 247.250,272.791 250.490,274.429 252.800 C 276.067 255.110,277.709 257.450,278.078 258.000 C 278.448 258.550,280.012 260.800,281.555 263.000 C 283.098 265.200,285.350 268.440,286.560 270.200 C 288.622 273.200,289.830 274.930,293.471 280.095 C 294.287 281.253,297.614 286.019,300.865 290.686 C 304.115 295.353,307.444 300.123,308.262 301.286 C 310.627 304.647,314.575 310.326,316.961 313.800 C 318.170 315.560,319.859 317.990,320.714 319.200 C 326.920 327.984,330.000 332.503,330.000 332.825 C 330.000 333.056,315.457 333.200,292.213 333.200 L 254.425 333.200 253.176 331.500 C 252.489 330.565,250.247 327.370,248.193 324.400 C 243.406 317.480,242.692 316.460,238.247 310.200 C 236.216 307.340,233.625 303.650,232.490 302.000 C 231.355 300.350,229.169 297.200,227.633 295.000 C 226.097 292.800,223.850 289.560,222.640 287.800 C 221.431 286.040,218.284 281.540,215.647 277.800 C 213.011 274.060,210.288 270.190,209.596 269.200 C 207.911 266.787,203.858 261.061,202.128 258.650 L 200.730 256.701 199.465 258.491 C 193.697 266.652,189.607 272.476,185.205 278.800 C 182.371 282.870,179.169 287.460,178.090 289.000 C 177.010 290.540,174.703 293.836,172.963 296.323 C 171.223 298.811,169.170 301.730,168.400 302.809 C 167.630 303.888,166.404 305.633,165.675 306.686 C 164.947 307.739,162.607 311.074,160.475 314.097 C 158.344 317.120,154.471 322.655,151.869 326.397 L 147.137 333.200 109.158 333.200 L 71.179 333.200 71.793 332.100 C 72.131 331.495,73.314 329.740,74.423 328.200 C 75.532 326.660,76.939 324.680,77.550 323.800 C 78.783 322.024,81.681 317.846,86.800 310.469 C 88.670 307.774,91.910 303.149,94.000 300.190 C 96.090 297.231,98.790 293.357,100.000 291.580 C 101.210 289.804,102.830 287.468,103.600 286.389 C 104.370 285.311,105.596 283.567,106.325 282.514 C 107.054 281.461,109.850 277.450,112.539 273.600 C 124.586 256.353,129.093 249.887,132.269 245.300 C 133.297 243.815,134.772 241.700,135.545 240.600 C 136.319 239.500,137.953 237.151,139.176 235.380 C 142.784 230.157,147.296 223.694,148.800 221.597 C 149.570 220.523,152.963 215.669,156.341 210.811 L 162.482 201.978 160.941 199.774 C 160.093 198.562,158.309 196.002,156.975 194.085 C 155.641 192.168,153.886 189.655,153.075 188.500 C 150.611 184.992,149.031 182.733,146.990 179.800 C 145.918 178.260,142.770 173.760,139.995 169.800 C 137.219 165.840,134.074 161.340,133.005 159.800 C 131.936 158.260,130.427 156.100,129.651 155.000 C 128.126 152.836,115.419 134.644,112.469 130.400 C 111.475 128.970,110.092 126.990,109.395 126.000 C 102.883 116.741,98.632 110.684,97.526 109.086 C 96.797 108.033,95.570 106.284,94.800 105.200 C 94.030 104.116,92.803 102.367,92.072 101.314 C 90.563 99.138,76.665 79.248,73.685 75.000 C 72.605 73.460,71.593 71.975,71.437 71.700 C 71.210 71.302,78.934 71.200,109.483 71.200 L 147.813 71.200 149.079 73.100 M102.649 87.680 C 103.094 88.400,108.015 95.505,111.123 99.915 C 112.629 102.052,114.673 104.970,115.665 106.400 C 117.318 108.781,125.943 121.064,132.081 129.776 C 133.466 131.742,135.601 134.802,136.825 136.576 C 139.649 140.668,142.093 144.163,146.352 150.200 C 150.518 156.106,154.037 161.145,157.082 165.567 C 160.082 169.924,160.830 170.993,164.242 175.800 C 169.763 183.579,170.483 184.613,171.277 185.900 C 172.386 187.698,172.462 187.654,175.289 183.582 C 176.670 181.593,178.430 179.083,179.200 178.005 C 179.970 176.927,182.220 173.685,184.200 170.800 C 186.180 167.915,188.471 164.637,189.292 163.516 L 190.783 161.478 189.060 159.039 C 188.113 157.698,186.465 155.340,185.399 153.800 C 184.334 152.260,182.860 150.143,182.125 149.095 C 178.969 144.600,177.450 142.423,171.200 133.437 C 167.570 128.219,163.970 123.067,163.200 121.989 C 162.430 120.911,161.199 119.167,160.465 118.114 C 159.731 117.061,155.740 111.340,151.596 105.400 C 147.452 99.460,143.463 93.736,142.731 92.679 C 141.999 91.622,140.807 89.957,140.082 88.979 L 138.763 87.200 120.558 87.200 C 106.502 87.200,102.420 87.309,102.649 87.680 M260.585 90.019 C 259.493 91.569,257.999 93.684,257.264 94.719 C 256.529 95.754,250.919 103.800,244.797 112.600 C 230.367 133.343,231.216 132.124,229.600 134.400 C 228.830 135.484,227.602 137.233,226.870 138.286 C 226.139 139.339,223.017 143.800,219.933 148.200 C 216.848 152.600,213.519 157.399,212.534 158.863 L 210.743 161.527 212.171 163.563 C 212.957 164.684,214.265 166.545,215.077 167.700 C 215.889 168.855,217.554 171.255,218.777 173.034 C 225.146 182.301,228.629 187.178,228.885 187.188 C 229.158 187.200,233.929 180.649,238.199 174.400 C 239.326 172.750,240.912 170.455,241.724 169.300 C 242.536 168.145,243.864 166.255,244.676 165.100 C 245.488 163.945,247.153 161.551,248.376 159.780 C 249.599 158.008,252.184 154.318,254.121 151.580 C 256.057 148.841,259.961 143.270,262.797 139.200 C 269.493 129.588,270.907 127.565,274.959 121.800 C 276.815 119.160,278.901 116.190,279.594 115.200 C 280.286 114.210,284.824 107.730,289.677 100.800 C 294.530 93.870,298.588 87.975,298.693 87.700 C 298.845 87.305,295.090 87.200,280.727 87.200 L 262.569 87.200 260.585 90.019 M198.400 179.210 C 197.190 180.971,193.185 186.723,189.500 191.993 C 185.815 197.263,182.800 201.747,182.800 201.958 C 182.800 202.168,184.858 205.279,187.374 208.870 C 189.890 212.462,192.514 216.210,193.205 217.200 C 201.370 228.899,200.586 228.195,202.432 225.495 C 203.219 224.343,206.016 220.340,208.647 216.600 C 211.279 212.860,214.309 208.540,215.382 207.000 C 216.455 205.460,217.691 203.714,218.128 203.119 L 218.922 202.039 217.046 199.319 C 216.015 197.824,213.602 194.346,211.685 191.590 C 209.768 188.835,206.580 184.206,204.600 181.305 C 200.331 175.050,201.083 175.304,198.400 179.210 M171.110 218.300 C 170.362 219.345,168.772 221.604,167.575 223.319 C 166.379 225.035,164.770 227.319,164.000 228.396 C 163.230 229.473,160.980 232.715,159.000 235.600 C 157.020 238.485,154.770 241.728,154.000 242.806 C 152.408 245.035,143.658 257.571,139.126 264.114 C 138.397 265.167,137.170 266.912,136.400 267.993 C 135.630 269.073,132.750 273.211,130.000 277.189 C 127.250 281.167,122.943 287.342,120.430 290.911 C 117.916 294.480,114.935 298.750,113.806 300.400 C 112.676 302.050,111.088 304.345,110.276 305.500 C 108.367 308.216,106.588 310.757,104.287 314.051 C 103.269 315.510,102.548 316.815,102.685 316.951 C 102.821 317.088,110.868 317.196,120.567 317.192 L 138.200 317.184 142.000 311.769 C 144.090 308.791,146.399 305.510,147.132 304.477 C 148.188 302.989,163.977 280.406,170.471 271.095 C 171.202 270.047,172.610 268.046,173.600 266.648 C 174.590 265.251,176.300 262.813,177.400 261.231 C 178.500 259.649,180.030 257.471,180.800 256.391 C 181.570 255.312,182.794 253.567,183.521 252.514 C 184.247 251.461,186.165 248.729,187.783 246.442 L 190.724 242.283 189.362 240.342 C 188.613 239.274,187.334 237.455,186.519 236.300 C 184.388 233.277,175.209 220.089,173.846 218.092 C 172.447 216.042,172.740 216.019,171.110 218.300 M226.132 220.229 C 224.589 222.413,221.377 226.990,218.994 230.400 C 216.611 233.810,213.928 237.644,213.031 238.920 C 212.134 240.196,211.228 241.490,211.017 241.796 C 210.754 242.178,210.834 242.580,211.272 243.077 C 211.623 243.474,212.890 245.240,214.088 247.000 C 215.285 248.760,218.983 254.070,222.306 258.800 C 225.629 263.530,228.914 268.210,229.604 269.200 C 230.295 270.190,232.252 272.980,233.952 275.400 C 235.653 277.820,238.997 282.590,241.385 286.000 C 243.772 289.410,246.327 293.055,247.063 294.100 C 247.798 295.145,249.058 296.945,249.861 298.100 C 250.665 299.255,254.009 304.025,257.291 308.700 L 263.260 317.200 281.030 317.200 C 293.318 317.200,298.800 317.069,298.800 316.775 C 298.800 316.541,297.571 314.606,296.069 312.475 C 294.568 310.344,292.467 307.340,291.400 305.800 C 290.334 304.260,288.828 302.100,288.055 301.000 C 287.281 299.900,285.722 297.650,284.589 296.000 C 283.457 294.350,280.393 289.940,277.780 286.200 C 266.960 270.714,263.181 265.300,261.925 263.486 C 261.196 262.433,259.970 260.684,259.200 259.600 C 258.430 258.516,257.203 256.767,256.474 255.714 C 255.744 254.661,252.414 249.888,249.074 245.106 C 245.733 240.325,240.750 233.160,238.000 229.185 C 233.629 222.867,231.695 220.104,229.490 217.029 C 228.975 216.310,228.747 216.527,226.132 220.229 " stroke="none" fill="#1c9cf3" fill-rule="evenodd"></path><path id="path3" d="M6.900 194.700 L 7.000 381.000 193.200 381.000 L 379.400 381.000 379.500 194.700 L 379.601 8.400 193.200 8.400 L 6.799 8.400 6.900 194.700 M379.100 194.700 L 379.201 380.400 193.200 380.400 L 7.200 380.400 7.200 194.600 L 7.200 8.799 193.100 8.900 L 379.000 9.000 379.100 194.700 " stroke="none" fill="#1474b4" fill-rule="evenodd"></path><path id="path4" d="M71.438 71.700 C 72.159 72.962,75.265 77.200,75.469 77.200 C 75.595 77.200,75.411 76.795,75.061 76.300 C 74.710 75.805,73.779 74.455,72.990 73.300 C 71.723 71.444,70.674 70.362,71.438 71.700 M147.602 71.422 C 147.604 71.828,149.562 74.349,149.586 73.978 C 149.594 73.855,149.150 73.145,148.600 72.400 C 148.050 71.655,147.601 71.215,147.602 71.422 M252.943 72.300 C 252.163 73.362,251.522 74.273,247.453 80.100 C 246.416 81.585,245.656 82.800,245.763 82.800 C 245.934 82.800,252.965 73.030,253.752 71.700 C 254.289 70.792,253.765 71.180,252.943 72.300 M325.150 78.063 C 320.067 85.283,319.712 85.825,320.310 85.456 C 320.536 85.316,321.360 84.256,322.142 83.101 C 322.923 81.945,324.830 79.200,326.380 77.000 C 329.417 72.689,330.120 71.600,329.865 71.600 C 329.775 71.600,327.653 74.508,325.150 78.063 M149.817 74.838 C 150.005 75.147,151.621 77.470,153.408 80.000 C 155.196 82.530,157.532 85.860,158.601 87.400 C 159.669 88.940,161.240 91.190,162.092 92.400 C 162.944 93.610,164.621 96.040,165.819 97.800 C 167.017 99.560,168.468 101.540,169.042 102.200 C 170.167 103.492,169.718 102.670,167.800 99.925 C 167.140 98.980,163.450 93.699,159.600 88.189 C 155.750 82.679,152.075 77.404,151.433 76.468 C 150.340 74.871,149.046 73.567,149.817 74.838 M75.820 78.038 C 76.009 78.347,78.884 82.470,82.209 87.200 C 88.476 96.115,91.026 99.767,93.743 103.719 C 94.620 104.994,95.514 106.147,95.730 106.281 C 96.273 106.616,96.272 106.615,89.430 96.852 C 81.080 84.937,79.689 82.946,77.857 80.281 C 76.449 78.233,74.889 76.515,75.820 78.038 M242.154 87.665 C 238.555 92.760,238.139 93.409,238.683 93.072 C 238.894 92.942,239.590 92.062,240.230 91.118 C 240.870 90.173,242.221 88.230,243.232 86.800 C 245.301 83.875,245.723 83.200,245.477 83.200 C 245.384 83.200,243.888 85.209,242.154 87.665 M318.719 87.300 C 317.298 89.194,316.972 89.994,318.191 88.600 C 319.281 87.353,320.150 86.000,319.862 86.000 C 319.770 86.000,319.256 86.585,318.719 87.300 M102.000 87.137 C 102.000 87.561,105.943 93.200,106.238 93.200 C 106.358 93.200,105.548 91.895,104.439 90.300 L 102.422 87.400 120.511 87.289 L 138.600 87.177 139.940 88.689 C 141.316 90.240,141.272 89.852,139.850 87.900 L 139.050 86.800 120.525 86.800 C 110.336 86.800,102.000 86.952,102.000 87.137 M260.887 88.900 C 258.960 91.530,258.553 92.200,259.082 91.873 C 259.305 91.735,260.172 90.628,261.010 89.411 L 262.533 87.200 280.666 87.200 C 290.640 87.200,298.800 87.335,298.799 87.500 C 298.799 87.665,296.385 91.220,293.436 95.400 C 290.486 99.580,288.171 103.090,288.291 103.200 C 288.411 103.310,288.575 103.220,288.656 103.000 C 288.736 102.780,291.214 99.180,294.162 95.000 C 297.111 90.820,299.440 87.265,299.338 87.100 C 299.236 86.935,290.889 86.800,280.789 86.800 L 262.425 86.800 260.887 88.900 M313.952 94.100 C 309.679 100.173,309.528 100.400,309.752 100.400 C 309.866 100.400,311.460 98.285,313.295 95.700 C 317.100 90.340,317.324 90.000,317.042 90.000 C 316.929 90.000,315.538 91.845,313.952 94.100 M141.627 91.079 C 141.942 91.562,142.740 92.729,143.400 93.671 C 147.897 100.091,158.805 115.727,159.767 117.131 C 160.788 118.623,161.600 119.506,161.600 119.124 C 161.600 119.056,159.454 115.940,156.832 112.200 C 150.038 102.509,149.922 102.343,145.932 96.600 C 143.946 93.740,142.036 91.130,141.687 90.800 C 141.112 90.255,141.107 90.281,141.627 91.079 M257.519 93.700 C 256.098 95.594,255.772 96.394,256.991 95.000 C 258.081 93.753,258.950 92.400,258.662 92.400 C 258.570 92.400,258.056 92.985,257.519 93.700 M106.766 94.300 C 106.983 94.685,107.634 95.540,108.212 96.200 C 109.008 97.108,108.948 96.938,107.964 95.500 C 106.680 93.622,106.002 92.944,106.766 94.300 M237.119 94.900 C 235.698 96.794,235.372 97.594,236.591 96.200 C 237.681 94.953,238.550 93.600,238.262 93.600 C 238.170 93.600,237.656 94.185,237.119 94.900 M251.129 102.871 C 246.136 110.005,245.875 110.400,246.151 110.400 C 246.256 110.400,248.380 107.488,250.871 103.929 C 255.864 96.795,256.125 96.400,255.849 96.400 C 255.744 96.400,253.620 99.312,251.129 102.871 M109.480 98.125 C 110.440 99.702,116.079 107.600,116.244 107.600 C 116.512 107.600,116.249 107.192,112.675 102.075 C 110.957 99.614,109.463 97.600,109.356 97.600 C 109.248 97.600,109.304 97.836,109.480 98.125 M234.904 98.100 C 234.687 98.375,233.855 99.545,233.055 100.700 C 232.255 101.855,231.005 103.655,230.277 104.700 C 228.593 107.118,228.306 107.600,228.552 107.600 C 228.720 107.600,234.348 99.722,235.320 98.125 C 235.727 97.457,235.425 97.439,234.904 98.100 M308.036 102.700 C 307.052 104.138,306.992 104.308,307.788 103.400 C 308.846 102.192,309.753 100.800,309.482 100.800 C 309.401 100.800,308.751 101.655,308.036 102.700 M170.221 104.038 C 170.410 104.347,172.586 107.480,175.057 111.000 C 177.527 114.520,180.113 118.210,180.803 119.200 C 181.492 120.190,186.025 126.670,190.875 133.600 C 195.725 140.530,199.781 146.425,199.889 146.700 C 200.357 147.890,203.118 145.109,204.925 141.626 C 205.478 140.561,203.239 143.303,202.088 145.099 C 201.490 146.034,200.900 146.799,200.778 146.799 C 200.590 146.800,196.315 140.826,190.258 132.100 C 189.456 130.945,188.135 129.055,187.323 127.900 C 185.083 124.716,174.073 108.915,172.260 106.281 C 170.849 104.233,169.286 102.514,170.221 104.038 M284.525 108.075 C 280.879 113.295,280.560 113.795,281.081 113.474 C 281.291 113.344,282.180 112.194,283.056 110.919 C 283.933 109.643,285.279 107.700,286.048 106.600 C 287.803 104.090,288.097 103.600,287.848 103.600 C 287.739 103.600,286.243 105.614,284.525 108.075 M303.325 109.275 C 299.751 114.392,299.488 114.800,299.756 114.800 C 299.863 114.800,301.357 112.786,303.075 110.325 C 306.649 105.208,306.912 104.800,306.644 104.800 C 306.537 104.800,305.043 106.814,303.325 109.275 M96.359 107.400 C 96.580 107.840,97.229 108.740,97.801 109.400 C 98.374 110.060,98.662 110.240,98.441 109.800 C 98.220 109.360,97.571 108.460,96.999 107.800 C 96.426 107.140,96.138 106.960,96.359 107.400 M116.667 108.400 C 117.902 110.153,125.964 121.727,127.338 123.719 C 128.749 125.765,130.319 127.492,129.378 125.962 C 128.267 124.157,117.408 108.899,116.880 108.400 C 116.314 107.867,116.291 107.867,116.667 108.400 M225.137 112.100 C 223.543 114.355,221.411 117.370,220.399 118.800 C 218.185 121.928,217.891 122.400,218.158 122.400 C 218.348 122.400,220.197 119.834,226.152 111.300 C 227.419 109.485,228.361 108.000,228.246 108.000 C 228.130 108.000,226.732 109.845,225.137 112.100 M99.025 111.200 C 99.747 112.481,108.120 124.233,108.716 124.800 C 109.503 125.550,109.244 125.145,105.723 120.129 C 104.360 118.188,102.495 115.520,101.578 114.200 C 99.916 111.806,98.293 109.899,99.025 111.200 M242.757 114.900 C 228.510 135.189,228.047 135.865,228.670 135.481 C 228.886 135.347,229.780 134.194,230.657 132.919 C 232.746 129.881,235.219 126.325,240.335 119.000 C 242.641 115.700,244.871 112.505,245.291 111.900 C 245.711 111.295,245.960 110.800,245.845 110.800 C 245.730 110.800,244.341 112.645,242.757 114.900 M279.519 115.300 C 278.098 117.194,277.772 117.994,278.991 116.600 C 280.081 115.353,280.950 114.000,280.662 114.000 C 280.570 114.000,280.056 114.585,279.519 115.300 M296.351 119.300 C 294.764 121.555,292.446 124.840,291.200 126.600 C 287.619 131.656,286.245 133.743,286.670 133.480 C 286.886 133.347,287.783 132.194,288.663 130.919 C 289.543 129.643,291.405 126.980,292.800 125.000 C 294.195 123.020,296.071 120.356,296.968 119.080 C 297.866 117.804,298.847 116.409,299.149 115.980 C 299.451 115.551,299.594 115.200,299.467 115.200 C 299.340 115.200,297.938 117.045,296.351 119.300 M274.755 122.100 C 273.171 124.355,271.048 127.360,270.037 128.777 C 267.765 131.964,267.221 132.872,268.106 132.000 C 269.250 130.872,278.201 118.000,277.842 118.000 C 277.729 118.000,276.340 119.845,274.755 122.100 M161.959 120.200 C 162.180 120.640,162.829 121.540,163.401 122.200 C 163.974 122.860,164.262 123.040,164.041 122.600 C 163.820 122.160,163.171 121.260,162.599 120.600 C 162.026 119.940,161.738 119.760,161.959 120.200 M216.719 124.100 C 215.298 125.994,214.972 126.794,216.191 125.400 C 217.281 124.153,218.150 122.800,217.862 122.800 C 217.770 122.800,217.256 123.385,216.719 124.100 M164.589 123.982 C 164.761 124.260,167.880 128.743,171.521 133.944 C 175.161 139.145,178.859 144.443,179.738 145.719 C 180.618 146.994,181.514 148.147,181.730 148.281 C 182.279 148.620,182.023 148.230,177.202 141.400 C 173.247 135.797,170.530 131.900,166.660 126.281 C 165.289 124.290,163.666 122.489,164.589 123.982 M109.566 126.300 C 109.783 126.685,110.432 127.540,111.009 128.200 C 111.898 129.218,111.867 129.111,110.809 127.500 C 109.614 125.681,108.744 124.840,109.566 126.300 M130.027 127.479 C 130.342 127.962,131.140 129.126,131.800 130.065 C 132.460 131.003,136.902 137.358,141.670 144.186 C 156.266 165.085,157.542 166.888,158.089 167.400 C 158.760 168.027,158.092 166.959,155.589 163.400 C 154.351 161.640,152.526 159.030,151.535 157.600 C 150.543 156.170,147.646 152.030,145.097 148.400 C 139.139 139.915,138.643 139.206,134.332 133.000 C 132.346 130.140,130.436 127.530,130.087 127.200 C 129.512 126.655,129.507 126.681,130.027 127.479 M211.725 131.275 C 208.151 136.392,207.888 136.800,208.156 136.800 C 208.263 136.800,209.757 134.786,211.475 132.325 C 215.049 127.208,215.312 126.800,215.044 126.800 C 214.937 126.800,213.443 128.814,211.725 131.275 M112.280 130.125 C 113.240 131.702,118.879 139.600,119.044 139.600 C 119.312 139.600,119.049 139.192,115.475 134.075 C 113.757 131.614,112.263 129.600,112.156 129.600 C 112.048 129.600,112.104 129.836,112.280 130.125 M262.729 139.271 C 257.736 146.405,257.475 146.800,257.751 146.800 C 257.856 146.800,259.980 143.888,262.471 140.329 C 267.464 133.195,267.725 132.800,267.449 132.800 C 267.344 132.800,265.220 135.712,262.729 139.271 M283.741 137.300 C 279.508 143.305,279.053 144.000,279.352 144.000 C 279.461 144.000,280.957 141.986,282.675 139.525 C 286.229 134.436,286.511 134.000,286.253 134.000 C 286.151 134.000,285.020 135.485,283.741 137.300 M227.119 137.300 C 225.698 139.194,225.372 139.994,226.591 138.600 C 227.681 137.353,228.550 136.000,228.262 136.000 C 228.170 136.000,227.656 136.585,227.119 137.300 M206.719 138.500 C 205.298 140.394,204.972 141.194,206.191 139.800 C 207.281 138.553,208.150 137.200,207.862 137.200 C 207.770 137.200,207.256 137.785,206.719 138.500 M120.391 141.700 C 121.077 142.745,121.726 143.600,121.833 143.600 C 122.147 143.600,121.324 142.297,120.191 141.000 C 119.302 139.982,119.333 140.089,120.391 141.700 M224.135 141.589 C 223.511 142.462,222.400 144.037,221.666 145.089 C 212.350 158.433,210.384 161.317,210.514 161.447 C 210.598 161.531,211.371 160.565,212.231 159.300 C 213.092 158.035,216.324 153.400,219.414 149.000 C 225.611 140.175,225.729 140.000,225.458 140.000 C 225.354 140.000,224.759 140.715,224.135 141.589 M124.799 148.117 C 127.493 152.024,130.021 155.296,129.345 154.000 C 128.795 152.947,122.367 144.000,122.160 144.000 C 122.050 144.000,123.238 145.853,124.799 148.117 M278.279 144.939 C 278.165 145.235,275.484 149.150,272.320 153.639 C 265.867 162.794,265.713 163.024,266.272 162.679 C 266.489 162.545,267.192 161.664,267.833 160.721 C 268.475 159.778,270.267 157.205,271.815 155.003 C 273.363 152.801,275.671 149.515,276.943 147.700 C 278.215 145.885,279.082 144.400,278.870 144.400 C 278.659 144.400,278.393 144.642,278.279 144.939 M254.337 151.300 C 252.743 153.555,250.611 156.570,249.599 158.000 C 247.276 161.282,246.965 161.793,247.483 161.472 C 247.707 161.334,248.729 160.001,249.753 158.510 C 250.777 157.020,252.968 153.865,254.622 151.500 C 256.275 149.135,257.540 147.200,257.432 147.200 C 257.324 147.200,255.932 149.045,254.337 151.300 M182.366 149.500 C 182.583 149.885,183.232 150.740,183.809 151.400 C 184.698 152.418,184.667 152.311,183.609 150.700 C 182.414 148.881,181.544 148.040,182.366 149.500 M185.251 153.598 C 185.553 154.037,186.917 155.996,188.282 157.951 L 190.763 161.505 189.182 163.625 C 187.595 165.751,187.448 166.000,187.778 166.000 C 188.864 166.000,191.088 161.439,190.475 160.467 C 189.090 158.269,185.126 152.800,184.918 152.800 C 184.799 152.800,184.949 153.159,185.251 153.598 M129.959 155.400 C 130.180 155.840,130.829 156.740,131.401 157.400 C 131.974 158.060,132.262 158.240,132.041 157.800 C 131.820 157.360,131.171 156.460,130.599 155.800 C 130.026 155.140,129.738 154.960,129.959 155.400 M132.623 159.238 C 132.813 159.547,135.685 163.670,139.004 168.400 C 146.276 178.762,148.448 181.872,150.543 184.919 C 151.420 186.194,152.314 187.347,152.530 187.481 C 153.091 187.827,152.931 187.588,146.191 178.000 C 139.924 169.085,137.374 165.433,134.657 161.481 C 133.255 159.441,131.672 157.696,132.623 159.238 M211.162 162.729 C 211.405 163.184,211.801 163.677,212.042 163.826 C 212.356 164.020,212.354 163.862,212.038 163.271 C 211.795 162.816,211.399 162.323,211.158 162.174 C 210.844 161.980,210.846 162.138,211.162 162.729 M245.919 163.300 C 244.498 165.194,244.172 165.994,245.391 164.600 C 246.481 163.353,247.350 162.000,247.062 162.000 C 246.970 162.000,246.456 162.585,245.919 163.300 M263.111 166.818 C 261.730 168.807,259.970 171.321,259.200 172.403 C 258.430 173.486,257.203 175.233,256.474 176.286 C 255.745 177.339,253.127 181.080,250.657 184.600 C 245.656 191.725,245.474 192.000,245.743 192.000 C 245.898 192.000,254.876 179.322,263.248 167.280 C 264.212 165.894,265.247 164.409,265.549 163.980 C 265.851 163.551,265.991 163.200,265.860 163.200 C 265.729 163.200,264.492 164.828,263.111 166.818 M212.649 164.870 C 213.607 166.455,219.275 174.400,219.448 174.400 C 219.697 174.400,219.403 173.910,217.648 171.400 C 216.879 170.300,215.533 168.357,214.656 167.081 C 213.231 165.006,211.738 163.362,212.649 164.870 M243.704 166.500 C 243.487 166.775,242.655 167.945,241.855 169.100 C 241.055 170.255,239.805 172.055,239.077 173.100 C 237.475 175.399,236.910 176.367,237.498 175.800 C 238.404 174.926,244.575 166.000,244.273 166.000 C 244.177 166.000,243.921 166.225,243.704 166.500 M184.128 170.900 C 182.412 173.375,180.424 176.210,179.711 177.200 C 178.998 178.190,178.222 179.360,177.986 179.800 C 177.227 181.218,179.538 178.295,181.781 175.000 C 182.979 173.240,184.653 170.810,185.501 169.600 C 187.413 166.870,187.699 166.400,187.448 166.400 C 187.339 166.400,185.845 168.425,184.128 170.900 M159.636 169.700 C 160.351 170.745,161.001 171.600,161.082 171.600 C 161.353 171.600,160.446 170.208,159.388 169.000 C 158.592 168.092,158.652 168.262,159.636 169.700 M163.454 175.300 C 168.518 182.619,171.248 186.400,171.467 186.400 C 171.594 186.400,171.451 186.049,171.149 185.621 C 170.847 185.193,170.060 184.070,169.400 183.126 C 164.406 175.982,161.530 172.000,161.365 172.000 C 161.258 172.000,162.198 173.485,163.454 175.300 M221.799 178.037 C 227.441 186.189,228.494 187.600,228.933 187.598 C 229.325 187.596,232.569 183.306,233.754 181.222 C 234.435 180.023,233.324 181.373,231.220 184.300 C 228.630 187.904,229.331 188.227,224.430 181.167 C 222.136 177.863,220.082 175.051,219.865 174.917 C 219.648 174.783,220.519 176.187,221.799 178.037 M200.104 176.100 C 199.615 176.719,197.062 180.419,196.653 181.100 C 196.488 181.375,196.447 181.600,196.561 181.600 C 196.736 181.600,197.586 180.433,200.484 176.217 C 200.661 175.960,201.009 176.105,201.406 176.602 C 202.028 177.380,202.033 177.378,201.608 176.500 C 201.116 175.485,200.680 175.369,200.104 176.100 M236.515 176.900 C 234.781 179.167,233.866 180.520,234.209 180.313 C 234.681 180.027,237.337 176.400,237.074 176.400 C 236.977 176.400,236.726 176.625,236.515 176.900 M204.929 181.844 C 206.599 184.240,209.504 188.450,211.385 191.200 C 214.451 195.682,217.735 199.993,216.343 197.708 C 215.031 195.552,202.654 177.957,202.294 177.734 C 202.074 177.599,203.260 179.448,204.929 181.844 M175.003 184.031 C 173.446 186.252,172.554 187.191,172.148 187.036 C 171.817 186.908,171.665 186.982,171.803 187.205 C 172.332 188.061,173.081 187.479,175.000 184.720 C 177.410 181.256,177.695 180.800,177.453 180.800 C 177.351 180.800,176.248 182.254,175.003 184.031 M195.704 182.500 C 195.487 182.775,194.655 183.945,193.855 185.100 C 193.055 186.255,191.805 188.055,191.077 189.100 C 189.475 191.399,188.910 192.367,189.498 191.800 C 190.404 190.926,196.575 182.000,196.273 182.000 C 196.177 182.000,195.921 182.225,195.704 182.500 M153.159 188.600 C 153.380 189.040,154.029 189.940,154.601 190.600 C 155.174 191.260,155.462 191.440,155.241 191.000 C 155.020 190.560,154.371 189.660,153.799 189.000 C 153.226 188.340,152.938 188.160,153.159 188.600 M155.817 192.438 C 156.004 192.747,157.490 194.876,159.117 197.168 C 160.745 199.460,162.145 201.530,162.227 201.768 C 162.352 202.130,159.264 206.691,148.799 221.600 C 140.373 233.605,138.000 237.028,138.000 237.180 C 138.000 237.593,139.086 236.207,141.567 232.627 C 144.841 227.905,153.013 216.180,155.174 213.105 C 156.062 211.842,157.384 209.952,158.112 208.905 C 158.841 207.857,160.219 205.876,161.175 204.502 L 162.914 202.003 161.325 199.702 C 160.452 198.436,158.956 196.267,158.000 194.881 C 156.476 192.671,154.866 190.869,155.817 192.438 M185.629 196.900 C 182.285 201.604,182.057 202.135,182.938 203.169 C 183.233 203.516,184.526 205.330,185.809 207.200 C 187.093 209.070,188.862 211.643,189.740 212.919 C 190.618 214.194,191.514 215.347,191.730 215.481 C 192.280 215.820,192.029 215.439,187.119 208.473 C 184.743 205.104,182.800 202.167,182.800 201.948 C 182.800 201.630,187.191 195.130,188.912 192.900 C 189.124 192.625,189.192 192.400,189.063 192.400 C 188.934 192.400,187.388 194.425,185.629 196.900 M243.897 194.300 C 238.621 201.611,238.290 202.281,239.465 203.251 C 240.072 203.751,240.086 203.716,239.628 202.856 C 239.123 201.909,239.823 200.681,245.149 193.174 C 245.451 192.748,245.601 192.400,245.483 192.400 C 245.365 192.400,244.651 193.255,243.897 194.300 M217.041 199.200 C 217.210 199.530,217.709 200.295,218.150 200.900 L 218.950 202.000 218.142 203.100 C 216.020 205.987,213.589 209.600,213.768 209.600 C 214.088 209.600,219.201 202.245,219.189 201.802 C 219.183 201.581,218.628 200.770,217.956 200.000 C 217.283 199.230,216.871 198.870,217.041 199.200 M240.359 204.600 C 240.580 205.040,241.229 205.940,241.801 206.600 C 242.374 207.260,242.662 207.440,242.441 207.000 C 242.220 206.560,241.571 205.660,240.999 205.000 C 240.426 204.340,240.138 204.160,240.359 204.600 M243.055 208.400 C 243.605 209.453,250.033 218.400,250.240 218.400 C 250.497 218.400,245.080 210.537,243.752 208.983 C 243.197 208.332,242.883 208.070,243.055 208.400 M211.991 211.900 C 210.933 213.511,210.902 213.618,211.791 212.600 C 212.924 211.303,213.747 210.000,213.433 210.000 C 213.326 210.000,212.677 210.855,211.991 211.900 M206.930 219.022 C 202.355 225.531,202.055 225.990,202.886 225.200 C 203.942 224.197,211.014 214.000,210.653 214.000 C 210.546 214.000,208.871 216.260,206.930 219.022 M169.200 220.282 C 165.757 225.182,165.487 225.600,165.760 225.600 C 165.870 225.600,166.812 224.385,167.853 222.900 C 168.894 221.415,170.370 219.330,171.132 218.267 L 172.517 216.334 173.487 217.467 C 174.021 218.090,174.327 218.330,174.168 218.000 C 173.784 217.205,172.737 215.998,172.438 216.006 C 172.307 216.009,170.850 217.934,169.200 220.282 M192.359 216.600 C 192.580 217.040,193.229 217.940,193.801 218.600 C 194.374 219.260,194.662 219.440,194.441 219.000 C 194.220 218.560,193.571 217.660,192.999 217.000 C 192.426 216.340,192.138 216.160,192.359 216.600 M225.200 220.875 C 223.330 223.553,221.653 226.026,221.473 226.372 C 220.827 227.615,222.658 225.229,225.727 220.830 C 228.336 217.089,228.950 216.427,229.436 216.830 C 229.912 217.225,229.972 217.194,229.766 216.657 C 229.281 215.392,228.573 216.046,225.200 220.875 M230.359 218.200 C 230.580 218.640,231.229 219.540,231.801 220.200 C 232.374 220.860,232.662 221.040,232.441 220.600 C 232.220 220.160,231.571 219.260,230.999 218.600 C 230.426 217.940,230.138 217.760,230.359 218.200 M174.604 219.206 C 174.935 219.743,183.737 232.362,186.597 236.400 C 187.453 237.610,188.672 239.365,189.305 240.300 C 189.939 241.235,190.545 242.000,190.652 242.000 C 190.927 242.000,190.577 241.446,187.904 237.657 C 183.111 230.863,180.711 227.417,177.191 222.278 C 176.015 220.561,174.879 219.049,174.665 218.916 C 174.433 218.773,174.408 218.889,174.604 219.206 M250.766 219.500 C 250.983 219.885,251.632 220.740,252.209 221.400 C 253.098 222.418,253.067 222.311,252.009 220.700 C 250.814 218.881,249.944 218.040,250.766 219.500 M194.801 220.100 C 194.806 220.453,200.310 227.770,200.658 227.886 C 200.895 227.965,201.394 227.528,201.768 226.915 L 202.447 225.800 201.608 226.764 C 200.632 227.885,200.837 228.053,197.628 223.500 C 195.509 220.494,194.795 219.635,194.801 220.100 M233.080 222.125 C 234.040 223.702,239.679 231.600,239.844 231.600 C 240.112 231.600,239.849 231.192,236.275 226.075 C 234.557 223.614,233.063 221.600,232.956 221.600 C 232.848 221.600,232.904 221.836,233.080 222.125 M253.651 223.588 C 253.953 224.022,255.439 226.186,256.954 228.398 C 258.469 230.610,259.886 232.530,260.105 232.665 C 260.642 232.997,260.344 232.529,256.675 227.275 C 254.957 224.814,253.450 222.800,253.327 222.800 C 253.203 222.800,253.349 223.155,253.651 223.588 M163.991 227.900 C 162.933 229.511,162.902 229.618,163.791 228.600 C 164.924 227.303,165.747 226.000,165.433 226.000 C 165.326 226.000,164.677 226.855,163.991 227.900 M217.937 231.300 C 216.343 233.555,214.211 236.570,213.199 238.000 C 210.876 241.282,210.565 241.793,211.083 241.472 C 211.307 241.334,212.329 240.001,213.353 238.510 C 214.377 237.020,216.568 233.865,218.222 231.500 C 219.875 229.135,221.140 227.200,221.032 227.200 C 220.924 227.200,219.532 229.045,217.937 231.300 M159.325 234.475 C 155.751 239.592,155.488 240.000,155.756 240.000 C 155.863 240.000,157.357 237.986,159.075 235.525 C 162.649 230.408,162.912 230.000,162.644 230.000 C 162.537 230.000,161.043 232.014,159.325 234.475 M241.191 233.700 C 241.877 234.745,242.526 235.600,242.633 235.600 C 242.947 235.600,242.124 234.297,240.991 233.000 C 240.102 231.982,240.133 232.089,241.191 233.700 M260.759 233.800 C 260.980 234.240,261.629 235.140,262.201 235.800 C 262.774 236.460,263.062 236.640,262.841 236.200 C 262.620 235.760,261.971 234.860,261.399 234.200 C 260.826 233.540,260.538 233.360,260.759 233.800 M243.020 236.438 C 243.209 236.747,245.269 239.700,247.598 243.000 C 251.553 248.603,254.270 252.500,258.140 258.119 C 259.018 259.394,259.914 260.547,260.130 260.681 C 260.637 260.994,260.298 260.442,257.986 257.189 C 256.188 254.661,248.326 243.399,245.066 238.681 C 243.645 236.626,242.098 234.929,243.020 236.438 M263.417 237.638 C 264.117 238.792,269.703 246.615,270.102 247.000 C 270.702 247.578,270.113 246.581,268.448 244.200 C 267.679 243.100,266.333 241.157,265.456 239.881 C 264.044 237.826,262.503 236.131,263.417 237.638 M136.719 238.900 C 135.298 240.794,134.972 241.594,136.191 240.200 C 137.281 238.953,138.150 237.600,137.862 237.600 C 137.770 237.600,137.256 238.185,136.719 238.900 M154.319 241.700 C 152.898 243.594,152.572 244.394,153.791 243.000 C 154.881 241.753,155.750 240.400,155.462 240.400 C 155.370 240.400,154.856 240.985,154.319 241.700 M133.932 242.900 C 133.402 243.615,132.076 245.509,130.984 247.109 C 129.893 248.709,128.753 250.374,128.451 250.809 C 128.149 251.244,128.003 251.600,128.127 251.600 C 128.313 251.600,133.870 243.850,134.920 242.125 C 135.545 241.099,134.880 241.620,133.932 242.900 M210.400 242.190 C 210.400 242.500,214.200 247.900,214.911 248.600 C 215.497 249.176,214.909 248.178,213.261 245.800 C 211.340 243.025,210.400 241.840,210.400 242.190 M187.719 246.500 C 182.236 254.298,181.366 255.630,182.954 253.800 C 183.527 253.140,185.212 250.833,186.698 248.674 C 188.184 246.514,189.647 244.399,189.949 243.974 C 190.251 243.548,190.394 243.200,190.268 243.200 C 190.142 243.200,188.995 244.685,187.719 246.500 M152.104 244.900 C 151.887 245.175,151.086 246.300,150.324 247.400 C 149.562 248.500,148.090 250.615,147.053 252.100 C 146.016 253.585,145.256 254.800,145.363 254.800 C 145.471 254.800,147.060 252.685,148.895 250.100 C 152.628 244.842,152.921 244.400,152.673 244.400 C 152.577 244.400,152.321 244.625,152.104 244.900 M273.196 251.678 C 275.967 255.683,278.344 258.781,277.739 257.600 C 277.225 256.596,270.772 247.600,270.566 247.600 C 270.461 247.600,271.644 249.435,273.196 251.678 M216.416 250.963 C 217.168 252.009,217.956 252.973,218.167 253.103 C 218.378 253.233,217.935 252.484,217.184 251.437 C 216.432 250.391,215.644 249.427,215.433 249.297 C 215.222 249.167,215.665 249.916,216.416 250.963 M124.884 255.900 C 119.233 263.909,117.539 266.400,117.746 266.400 C 117.927 266.400,120.695 262.576,125.800 255.274 C 126.460 254.330,127.247 253.207,127.549 252.779 C 127.851 252.351,127.994 252.000,127.867 252.000 C 127.740 252.000,126.398 253.755,124.884 255.900 M218.605 254.000 C 218.782 254.330,219.503 255.410,220.207 256.400 C 221.748 258.568,223.984 261.776,226.144 264.919 C 227.552 266.968,229.110 268.684,228.181 267.162 C 226.408 264.258,217.647 252.216,218.605 254.000 M140.350 261.663 C 135.325 268.801,134.917 269.422,135.481 269.074 C 135.691 268.944,136.580 267.794,137.456 266.519 C 139.616 263.376,141.852 260.168,143.393 258.000 C 144.905 255.873,145.309 255.200,145.074 255.200 C 144.979 255.200,142.853 258.108,140.350 261.663 M181.304 255.700 C 181.087 255.975,180.220 257.190,179.378 258.400 C 178.535 259.610,176.770 262.130,175.455 264.000 C 174.139 265.870,172.329 268.444,171.432 269.720 C 168.863 273.373,168.521 273.926,169.285 273.200 C 170.313 272.221,182.217 255.200,181.873 255.200 C 181.777 255.200,181.521 255.425,181.304 255.700 M199.340 258.002 C 198.713 258.905,197.651 260.399,196.979 261.322 C 194.120 265.253,190.303 270.907,190.656 270.689 C 190.866 270.559,193.188 267.397,195.815 263.662 C 198.442 259.927,200.719 256.950,200.873 257.045 C 201.028 257.141,202.610 259.285,204.390 261.810 C 206.169 264.334,207.720 266.400,207.836 266.400 C 208.116 266.400,208.062 266.318,204.355 261.107 C 200.572 255.789,200.785 255.921,199.340 258.002 M278.359 259.000 C 278.580 259.440,279.229 260.340,279.801 261.000 C 280.374 261.660,280.662 261.840,280.441 261.400 C 280.220 260.960,279.571 260.060,278.999 259.400 C 278.426 258.740,278.138 258.560,278.359 259.000 M260.759 261.800 C 260.980 262.240,261.629 263.140,262.201 263.800 C 262.774 264.460,263.062 264.640,262.841 264.200 C 262.620 263.760,261.971 262.860,261.399 262.200 C 260.826 261.540,260.538 261.360,260.759 261.800 M281.080 262.925 C 282.040 264.502,287.679 272.400,287.844 272.400 C 288.112 272.400,287.849 271.992,284.275 266.875 C 282.557 264.414,281.063 262.400,280.956 262.400 C 280.848 262.400,280.904 262.636,281.080 262.925 M263.449 265.670 C 264.483 267.380,270.082 275.200,270.273 275.200 C 270.397 275.200,270.251 274.845,269.949 274.412 C 269.647 273.978,268.161 271.814,266.646 269.602 C 265.131 267.390,263.714 265.470,263.495 265.335 C 263.246 265.181,263.229 265.306,263.449 265.670 M112.750 273.263 C 107.667 280.483,107.312 281.025,107.910 280.656 C 108.136 280.516,108.960 279.456,109.742 278.301 C 110.523 277.145,112.430 274.400,113.980 272.200 C 117.017 267.889,117.720 266.800,117.465 266.800 C 117.375 266.800,115.253 269.708,112.750 273.263 M208.359 267.400 C 208.580 267.840,209.229 268.740,209.801 269.400 C 210.374 270.060,210.662 270.240,210.441 269.800 C 210.220 269.360,209.571 268.460,208.999 267.800 C 208.426 267.140,208.138 266.960,208.359 267.400 M228.759 268.600 C 228.980 269.040,229.629 269.940,230.201 270.600 C 230.774 271.260,231.062 271.440,230.841 271.000 C 230.620 270.560,229.971 269.660,229.399 269.000 C 228.826 268.340,228.538 268.160,228.759 268.600 M133.798 271.100 C 126.268 281.822,125.066 283.600,125.347 283.600 C 125.513 283.600,133.978 271.687,134.920 270.129 C 135.620 268.971,134.788 269.692,133.798 271.100 M211.017 271.238 C 211.686 272.342,217.295 280.208,217.693 280.600 C 218.453 281.350,217.306 279.432,215.534 276.991 C 214.580 275.676,213.274 273.827,212.633 272.882 C 211.547 271.282,210.234 269.947,211.017 271.238 M185.529 277.671 C 180.536 284.805,180.275 285.200,180.551 285.200 C 180.656 285.200,182.780 282.288,185.271 278.729 C 190.264 271.595,190.525 271.200,190.249 271.200 C 190.144 271.200,188.020 274.112,185.529 277.671 M231.455 272.400 C 232.005 273.453,238.433 282.400,238.640 282.400 C 238.897 282.400,233.480 274.537,232.152 272.983 C 231.597 272.332,231.283 272.070,231.455 272.400 M288.359 273.400 C 288.580 273.840,289.229 274.740,289.801 275.400 C 290.374 276.060,290.662 276.240,290.441 275.800 C 290.220 275.360,289.571 274.460,288.999 273.800 C 288.426 273.140,288.138 272.960,288.359 273.400 M158.737 287.864 C 153.382 295.489,148.842 301.994,148.649 302.319 C 147.891 303.598,149.120 302.357,150.233 300.720 C 150.875 299.777,155.187 293.604,159.816 287.003 C 168.965 273.954,168.933 274.000,168.661 274.000 C 168.558 274.000,164.093 280.239,158.737 287.864 M271.636 277.300 C 272.351 278.345,273.001 279.200,273.082 279.200 C 273.353 279.200,272.446 277.808,271.388 276.600 C 270.592 275.692,270.652 275.862,271.636 277.300 M291.028 277.200 C 291.215 277.530,293.898 281.400,296.990 285.800 C 300.081 290.200,303.465 295.060,304.509 296.600 C 306.359 299.329,309.028 302.681,307.943 300.914 C 307.645 300.427,304.662 296.107,301.316 291.314 C 297.970 286.521,294.485 281.520,293.572 280.200 C 291.928 277.823,290.277 275.877,291.028 277.200 M275.433 282.900 C 280.982 290.865,283.252 294.000,283.467 294.000 C 283.594 294.000,283.451 293.649,283.149 293.221 C 282.847 292.793,282.060 291.670,281.400 290.726 C 276.295 283.424,273.527 279.600,273.346 279.600 C 273.229 279.600,274.168 281.085,275.433 282.900 M106.327 282.496 C 104.635 284.861,99.002 293.017,98.025 294.517 C 97.708 295.003,97.646 295.220,97.886 295.000 C 98.269 294.650,106.538 283.020,107.342 281.700 C 107.978 280.658,107.214 281.256,106.327 282.496 M219.216 282.963 C 219.968 284.009,220.756 284.973,220.967 285.103 C 221.178 285.233,220.735 284.484,219.984 283.437 C 219.232 282.391,218.444 281.427,218.233 281.297 C 218.022 281.167,218.465 281.916,219.216 282.963 M239.166 283.500 C 239.383 283.885,240.034 284.740,240.612 285.400 C 241.408 286.308,241.348 286.138,240.364 284.700 C 239.080 282.822,238.402 282.144,239.166 283.500 M122.094 287.900 C 117.024 295.109,114.671 298.604,115.295 298.000 C 116.421 296.909,125.408 284.000,125.042 284.000 C 124.929 284.000,123.602 285.755,122.094 287.900 M177.137 289.700 C 175.543 291.955,173.411 294.970,172.399 296.400 C 170.081 299.674,169.765 300.192,170.279 299.875 C 170.501 299.738,172.644 296.821,175.041 293.393 C 177.438 289.966,179.647 286.810,179.949 286.381 C 180.251 285.951,180.394 285.600,180.267 285.600 C 180.140 285.600,178.732 287.445,177.137 289.700 M221.480 286.125 C 222.440 287.702,228.079 295.600,228.244 295.600 C 228.512 295.600,228.249 295.192,224.675 290.075 C 222.957 287.614,221.463 285.600,221.356 285.600 C 221.248 285.600,221.304 285.836,221.480 286.125 M241.846 287.237 C 242.256 287.976,258.676 311.472,260.883 314.479 C 261.699 315.590,262.439 316.702,262.529 316.950 C 262.618 317.197,262.789 317.310,262.909 317.200 C 263.029 317.090,260.096 312.680,256.392 307.400 C 252.689 302.120,249.091 296.990,248.399 296.000 C 242.851 288.072,240.752 285.266,241.846 287.237 M283.853 294.900 C 284.018 295.175,284.783 296.300,285.552 297.400 C 286.321 298.500,287.667 300.443,288.544 301.719 C 289.969 303.794,291.462 305.438,290.551 303.930 C 289.593 302.345,283.925 294.400,283.752 294.400 C 283.642 294.400,283.688 294.625,283.853 294.900 M93.905 300.300 C 90.301 305.377,89.356 306.887,90.952 305.017 C 92.280 303.463,97.697 295.600,97.440 295.600 C 97.331 295.600,95.740 297.715,93.905 300.300 M228.759 296.600 C 228.980 297.040,229.629 297.940,230.201 298.600 C 230.774 299.260,231.062 299.440,230.841 299.000 C 230.620 298.560,229.971 297.660,229.399 297.000 C 228.826 296.340,228.538 296.160,228.759 296.600 M111.354 303.265 C 107.759 308.355,107.339 309.009,107.881 308.674 C 108.091 308.544,108.980 307.394,109.856 306.119 C 110.733 304.843,112.079 302.900,112.848 301.800 C 114.560 299.352,114.896 298.800,114.677 298.800 C 114.584 298.800,113.088 300.809,111.354 303.265 M231.423 300.400 C 232.127 301.642,240.512 313.425,241.100 314.000 C 241.671 314.558,238.514 309.864,234.013 303.464 C 232.153 300.820,230.658 299.052,231.423 300.400 M168.719 301.700 C 167.298 303.594,166.972 304.394,168.191 303.000 C 169.281 301.753,170.150 300.400,169.862 300.400 C 169.770 300.400,169.256 300.985,168.719 301.700 M308.759 302.600 C 308.980 303.040,309.629 303.940,310.201 304.600 C 310.774 305.260,311.062 305.440,310.841 305.000 C 310.620 304.560,309.971 303.660,309.399 303.000 C 308.826 302.340,308.538 302.160,308.759 302.600 M147.119 304.500 C 145.698 306.394,145.372 307.194,146.591 305.800 C 147.681 304.553,148.550 303.200,148.262 303.200 C 148.170 303.200,147.656 303.785,147.119 304.500 M165.919 305.700 C 164.498 307.594,164.172 308.394,165.391 307.000 C 166.481 305.753,167.350 304.400,167.062 304.400 C 166.970 304.400,166.456 304.985,165.919 305.700 M291.021 305.238 C 291.210 305.547,293.038 308.177,295.083 311.082 C 297.127 313.988,298.800 316.553,298.800 316.782 C 298.800 317.012,298.980 317.200,299.200 317.200 C 299.751 317.200,299.701 316.781,299.060 316.031 C 298.562 315.449,297.276 313.617,293.057 307.481 C 291.651 305.436,290.083 303.709,291.021 305.238 M311.480 306.525 C 312.440 308.102,318.079 316.000,318.244 316.000 C 318.512 316.000,318.249 315.592,314.675 310.475 C 312.957 308.014,311.463 306.000,311.356 306.000 C 311.248 306.000,311.304 306.236,311.480 306.525 M88.391 308.300 C 87.333 309.911,87.302 310.018,88.191 309.000 C 89.324 307.703,90.147 306.400,89.833 306.400 C 89.726 306.400,89.077 307.255,88.391 308.300 M141.800 312.046 C 139.907 314.711,138.430 316.963,138.517 317.050 C 138.604 317.138,140.099 315.193,141.838 312.729 C 145.430 307.640,145.717 307.200,145.441 307.200 C 145.331 307.200,143.693 309.381,141.800 312.046 M163.704 308.900 C 163.487 309.175,162.686 310.300,161.924 311.400 C 161.162 312.500,159.690 314.615,158.653 316.100 C 157.616 317.585,156.856 318.800,156.963 318.800 C 157.071 318.800,158.660 316.685,160.495 314.100 C 164.228 308.842,164.521 308.400,164.273 308.400 C 164.177 308.400,163.921 308.625,163.704 308.900 M106.319 310.500 C 104.898 312.394,104.572 313.194,105.791 311.800 C 106.881 310.553,107.750 309.200,107.462 309.200 C 107.370 309.200,106.856 309.785,106.319 310.500 M83.725 314.875 C 80.056 320.129,79.758 320.597,80.295 320.265 C 80.514 320.130,81.931 318.210,83.446 315.998 C 84.961 313.786,86.447 311.622,86.749 311.188 C 87.051 310.755,87.197 310.400,87.073 310.400 C 86.950 310.400,85.443 312.414,83.725 314.875 M103.235 314.879 C 101.905 316.687,101.735 317.200,102.467 317.200 C 102.723 317.200,102.814 317.081,102.669 316.935 C 102.523 316.790,102.821 316.115,103.330 315.435 C 104.494 313.883,104.900 313.200,104.658 313.200 C 104.554 313.200,103.914 313.955,103.235 314.879 M241.966 315.500 C 242.183 315.885,242.832 316.740,243.409 317.400 C 244.298 318.418,244.267 318.311,243.209 316.700 C 242.014 314.881,241.144 314.040,241.966 315.500 M320.029 318.843 C 320.983 320.250,323.542 323.920,325.714 327.000 L 329.664 332.600 292.132 332.703 L 254.600 332.807 253.889 331.834 C 252.789 330.329,251.505 328.932,251.837 329.600 C 252.000 329.930,252.659 330.875,253.301 331.700 L 254.467 333.200 292.234 333.200 C 315.465 333.200,330.000 333.056,330.000 332.825 C 330.000 332.619,328.259 329.964,326.132 326.925 C 324.004 323.886,321.543 320.357,320.663 319.081 C 319.783 317.806,318.890 316.656,318.678 316.525 C 318.467 316.394,319.074 317.437,320.029 318.843 M244.680 319.325 C 245.640 320.902,251.279 328.800,251.444 328.800 C 251.712 328.800,251.449 328.392,247.875 323.275 C 246.157 320.814,244.663 318.800,244.556 318.800 C 244.448 318.800,244.504 319.036,244.680 319.325 M151.752 325.992 L 147.000 332.784 109.500 332.792 C 88.875 332.796,72.000 332.698,72.000 332.572 C 72.000 332.447,73.044 330.872,74.320 329.072 C 76.984 325.314,77.579 324.359,76.814 325.064 C 76.163 325.665,72.590 330.673,71.793 332.100 L 71.179 333.200 109.161 333.200 L 147.142 333.200 151.671 326.729 C 156.591 319.699,156.923 319.200,156.672 319.200 C 156.579 319.200,154.366 322.256,151.752 325.992 M78.719 322.100 C 77.298 323.994,76.972 324.794,78.191 323.400 C 79.281 322.153,80.150 320.800,79.862 320.800 C 79.770 320.800,79.256 321.385,78.719 322.100 " stroke="none" fill="#94ccf4" fill-rule="evenodd"></path></g></svg>