<?xml version="1.0" standalone="no"?>
<!DOCTYPE svg PUBLIC "-//W3C//DTD SVG 20010904//EN"
 "http://www.w3.org/TR/2001/REC-SVG-20010904/DTD/svg10.dtd">
<svg version="1.0" xmlns="http://www.w3.org/2000/svg"
 width="149.000000pt" height="221.000000pt" viewBox="0 0 149.000000 221.000000"
 preserveAspectRatio="xMidYMid meet">
<metadata>
Created by potrace 1.16, written by Peter Selinger 2001-2019
</metadata>
<g transform="translate(0.000000,221.000000) scale(0.100000,-0.100000)"
fill="#000000" stroke="none">
<path d="M545 2175 c-25 -24 -25 -26 -25 -209 l0 -185 -71 -3 c-55 -2 -74 -7
-83 -20 -8 -13 -8 -23 0 -35 10 -17 40 -18 389 -18 349 0 379 1 389 17 8 13 8
23 0 35 -9 14 -28 19 -88 21 l-76 3 0 185 c0 249 15 234 -230 234 -179 0 -181
0 -205 -25z m355 -225 l0 -170 -150 0 -150 0 0 170 0 170 150 0 150 0 0 -170z"/>
<path d="M25 1956 l-25 -25 0 -949 c0 -743 3 -952 13 -965 11 -16 65 -17 742
-15 l730 3 3 972 2 972 -24 16 c-19 13 -56 15 -216 13 -171 -3 -194 -5 -204
-20 -8 -13 -8 -23 0 -35 10 -16 32 -18 193 -21 l181 -2 0 -920 0 -920 -670 0
-670 0 0 920 0 920 176 2 c156 3 178 5 188 21 8 12 8 22 0 35 -10 15 -33 17
-203 20 l-191 2 -25 -24z"/>
<path d="M265 1575 l-25 -24 0 -441 0 -441 25 -24 24 -25 461 0 461 0 24 25
25 24 0 441 0 441 -25 24 -24 25 -461 0 -461 0 -24 -25z m915 -465 l0 -410
-49 0 -48 0 -6 54 c-10 103 -77 194 -176 240 -67 31 -255 31 -322 0 -99 -46
-166 -137 -176 -240 l-6 -54 -38 0 -39 0 0 410 0 410 430 0 430 0 0 -410z
m-287 -203 c55 -33 97 -98 105 -163 4 -42 4 -44 -22 -44 -21 0 -26 5 -26 24 0
54 -66 59 -77 5 l-5 -29 -123 0 -122 0 -6 29 c-11 54 -77 49 -77 -5 0 -20 -5
-24 -30 -24 -27 0 -30 3 -30 33 0 45 45 132 82 159 55 38 97 48 193 45 78 -2
98 -7 138 -30z"/>
<path d="M665 1421 c-48 -22 -69 -44 -90 -94 -46 -110 20 -242 131 -263 147
-27 260 130 195 271 -22 48 -44 69 -94 90 -48 20 -93 19 -142 -4z m124 -75
c31 -17 51 -54 51 -96 0 -109 -137 -152 -186 -59 -51 100 39 204 135 155z"/>
<path d="M412 448 c-16 -16 -15 -43 2 -57 9 -8 108 -11 341 -9 300 3 329 5
339 21 8 12 8 22 0 35 -10 15 -39 17 -340 20 -248 2 -333 -1 -342 -10z"/>
<path d="M542 268 c-7 -7 -12 -20 -12 -29 0 -36 22 -40 215 -37 166 3 189 5
199 20 8 13 8 23 0 35 -10 16 -33 18 -200 21 -139 2 -193 -1 -202 -10z"/>
</g>
</svg>
