<svg id="svg" version="1.1" xmlns="http://www.w3.org/2000/svg" xmlns:xlink="http://www.w3.org/1999/xlink" width="400" height="405.49450549450546" viewBox="0, 0, 400,405.49450549450546"><g id="svgg"><path id="path0" d="M0.000 194.000 L 0.000 388.000 7.800 388.000 L 15.600 388.000 15.600 396.600 L 15.600 405.200 207.800 405.200 L 400.000 405.200 400.000 210.800 L 400.000 16.400 393.800 16.400 L 387.600 16.400 387.600 8.200 L 387.600 0.000 193.800 0.000 L 0.000 0.000 0.000 194.000 M378.400 193.200 L 378.400 378.800 192.800 378.800 L 7.200 378.800 7.200 193.467 C 7.200 91.533,7.320 8.013,7.467 7.867 C 7.613 7.720,91.133 7.600,193.067 7.600 L 378.400 7.600 378.400 193.200 " stroke="none" fill="#040404" fill-rule="evenodd"></path><path id="path1" d="M173.200 104.816 C 155.710 105.100,140.447 105.715,129.200 106.588 C 125.130 106.904,120.180 107.264,118.200 107.388 C 114.408 107.624,107.580 108.195,101.168 108.813 C 79.666 110.883,65.984 124.699,62.799 147.557 C 62.572 149.183,62.299 150.893,62.192 151.357 C 62.084 151.820,61.728 154.540,61.401 157.400 C 61.073 160.260,60.583 164.130,60.311 166.000 C 59.592 170.956,59.597 229.909,60.317 235.200 C 60.602 237.290,61.086 241.340,61.392 244.200 C 62.855 257.840,64.152 263.375,67.468 270.131 C 74.238 283.922,87.313 291.540,107.400 293.394 C 108.940 293.536,111.550 293.821,113.200 294.026 C 149.046 298.498,261.871 297.349,287.204 292.254 C 303.108 289.056,312.405 282.488,318.360 270.246 C 321.850 263.069,322.903 257.586,325.280 234.200 C 327.152 215.784,326.633 169.388,324.421 157.400 C 324.218 156.300,323.938 154.320,323.798 153.000 C 321.190 128.357,310.852 115.155,290.000 109.843 C 280.657 107.463,252.012 105.440,218.600 104.801 C 199.159 104.429,196.982 104.430,173.200 104.816 M202.821 179.315 C 222.688 190.818,239.008 200.425,239.088 200.663 C 239.213 201.039,211.605 217.327,204.400 221.128 C 202.970 221.882,201.530 222.723,201.200 222.996 C 200.688 223.419,174.472 238.611,169.800 241.192 C 168.920 241.678,168.029 242.238,167.820 242.438 C 166.394 243.797,166.400 243.971,166.400 200.600 C 166.400 177.390,166.467 158.400,166.549 158.400 C 166.631 158.400,182.954 167.812,202.821 179.315 " stroke="none" fill="#fcfbfb" fill-rule="evenodd"></path><path id="path2" d="M7.700 193.300 L 7.800 378.200 192.900 378.300 L 378.000 378.401 378.000 193.400 L 378.000 8.400 192.800 8.400 L 7.599 8.400 7.700 193.300 M234.400 104.792 C 248.992 105.166,252.827 105.379,267.000 106.608 C 291.945 108.769,298.872 110.735,308.439 118.366 C 318.132 126.097,322.149 135.499,324.605 156.200 C 324.944 159.060,325.391 162.480,325.597 163.800 C 327.350 175.040,327.223 226.097,325.418 235.600 C 325.313 236.150,325.039 238.947,324.808 241.816 C 321.508 282.805,308.662 293.240,258.600 295.601 C 253.980 295.819,244.350 296.269,237.200 296.601 C 222.024 297.307,168.490 297.438,155.000 296.802 C 150.380 296.585,142.190 296.226,136.800 296.006 C 127.269 295.617,123.658 295.355,111.600 294.177 C 87.217 291.795,76.123 286.188,68.113 272.200 C 65.530 267.688,64.508 264.806,62.796 257.200 C 62.321 255.089,61.395 248.011,60.597 240.400 C 60.286 237.430,59.846 233.380,59.619 231.400 C 59.081 226.708,59.069 174.570,59.604 170.000 C 59.823 168.130,60.272 164.170,60.601 161.200 C 63.179 137.910,65.800 129.878,73.558 121.498 C 79.238 115.363,87.246 111.028,96.400 109.132 C 100.011 108.384,104.154 108.009,124.000 106.634 C 128.730 106.306,135.390 105.832,138.800 105.581 C 153.346 104.509,206.302 104.072,234.400 104.792 M166.400 200.643 C 166.400 237.064,166.475 242.457,166.981 242.263 C 167.966 241.885,237.766 201.511,238.336 200.990 C 238.917 200.459,238.628 200.271,229.200 195.068 C 227.990 194.400,222.230 191.069,216.400 187.665 C 192.456 173.685,189.724 172.094,188.000 171.125 C 185.464 169.699,183.183 168.395,181.912 167.643 C 175.532 163.870,166.751 158.800,166.596 158.800 C 166.488 158.800,166.400 177.629,166.400 200.643 " stroke="none" fill="#fc0404" fill-rule="evenodd"></path><path id="path3" d="M172.924 104.699 C 175.962 104.767,180.822 104.767,183.724 104.699 C 186.626 104.631,184.140 104.575,178.200 104.575 C 172.260 104.575,169.886 104.631,172.924 104.699 M210.700 104.699 C 213.395 104.768,217.805 104.768,220.500 104.699 C 223.195 104.630,220.990 104.573,215.600 104.573 C 210.210 104.573,208.005 104.630,210.700 104.699 M144.257 105.241 C 140.549 105.418,137.309 105.651,137.057 105.760 C 136.511 105.998,149.571 105.610,155.800 105.204 L 160.200 104.918 155.600 104.919 C 153.070 104.920,147.966 105.065,144.257 105.241 M237.400 105.182 C 244.437 105.649,257.601 105.978,254.124 105.599 C 252.543 105.427,247.053 105.191,241.924 105.075 C 235.374 104.926,234.028 104.958,237.400 105.182 M130.707 106.290 C 131.426 106.379,132.506 106.377,133.107 106.286 C 133.708 106.195,133.120 106.122,131.800 106.124 C 130.480 106.126,129.988 106.201,130.707 106.290 M263.400 106.599 C 271.336 107.414,275.013 107.684,274.765 107.434 C 274.497 107.164,261.620 105.977,259.800 106.055 C 259.140 106.084,260.760 106.328,263.400 106.599 M119.200 106.851 C 116.890 107.037,114.730 107.269,114.400 107.366 C 113.633 107.592,122.453 107.174,126.400 106.798 L 129.400 106.512 126.400 106.512 C 124.750 106.511,121.510 106.664,119.200 106.851 M103.865 108.026 C 101.481 108.197,99.411 108.458,99.265 108.606 C 98.981 108.894,105.847 108.502,109.800 108.004 L 112.200 107.701 110.200 107.709 C 109.100 107.713,106.249 107.856,103.865 108.026 M277.800 107.985 C 278.680 108.174,280.750 108.428,282.400 108.549 C 284.580 108.709,284.963 108.676,283.800 108.429 C 282.920 108.242,280.850 107.988,279.200 107.865 C 277.006 107.702,276.630 107.734,277.800 107.985 M93.400 109.807 L 91.800 110.352 93.400 110.119 C 94.280 109.991,95.360 109.743,95.800 109.568 L 96.600 109.251 95.800 109.256 C 95.360 109.259,94.280 109.507,93.400 109.807 M289.800 109.811 C 290.680 110.101,291.760 110.333,292.200 110.327 C 292.640 110.321,292.280 110.079,291.400 109.789 C 290.520 109.499,289.440 109.267,289.000 109.273 C 288.560 109.279,288.920 109.521,289.800 109.811 M89.275 111.073 C 88.326 111.409,87.621 111.754,87.707 111.841 C 87.890 112.023,91.600 110.805,91.600 110.562 C 91.600 110.312,91.145 110.412,89.275 111.073 M294.200 110.967 C 294.860 111.261,295.850 111.620,296.400 111.765 L 297.400 112.029 296.400 111.470 C 295.850 111.162,294.860 110.803,294.200 110.672 L 293.000 110.433 294.200 110.967 M85.500 112.629 C 84.895 112.957,84.400 113.300,84.400 113.392 C 84.400 113.679,86.790 112.740,87.024 112.361 C 87.346 111.841,86.764 111.943,85.500 112.629 M298.400 112.569 C 299.514 113.241,300.391 113.416,299.780 112.845 C 299.571 112.650,298.950 112.372,298.400 112.228 L 297.400 111.967 298.400 112.569 M300.967 113.696 C 307.208 117.803,309.205 119.333,311.576 121.830 C 313.117 123.452,315.039 125.774,315.846 126.990 C 317.424 129.366,318.107 129.988,316.923 127.968 C 314.000 122.987,306.857 116.319,302.000 114.037 C 301.010 113.572,300.545 113.418,300.967 113.696 M82.000 114.669 C 78.335 116.832,74.270 120.342,71.891 123.400 C 71.207 124.280,72.166 123.456,74.023 121.568 C 75.880 119.680,78.840 117.188,80.600 116.028 C 82.360 114.869,83.875 113.848,83.967 113.760 C 84.389 113.355,83.650 113.696,82.000 114.669 M70.111 125.700 C 69.329 126.711,69.063 127.332,69.536 127.040 C 70.010 126.747,70.957 125.200,70.663 125.200 C 70.572 125.200,70.324 125.425,70.111 125.700 M68.537 128.100 C 67.748 129.193,66.330 132.063,66.497 132.230 C 66.594 132.327,67.241 131.326,67.934 130.004 C 69.113 127.754,69.368 126.949,68.537 128.100 M318.055 130.787 C 318.288 131.455,318.634 132.097,318.823 132.214 C 319.013 132.332,318.977 131.881,318.745 131.213 C 318.512 130.545,318.166 129.903,317.977 129.786 C 317.787 129.668,317.823 130.119,318.055 130.787 M65.446 134.646 C 65.092 135.685,64.872 136.605,64.956 136.690 C 65.041 136.774,65.400 135.993,65.754 134.954 C 66.108 133.915,66.328 132.995,66.244 132.910 C 66.159 132.826,65.800 133.607,65.446 134.646 M319.423 133.700 C 319.575 134.195,319.954 135.050,320.264 135.600 L 320.829 136.600 320.561 135.600 C 320.120 133.953,319.635 132.800,319.383 132.800 C 319.253 132.800,319.271 133.205,319.423 133.700 M321.055 138.000 C 321.192 138.770,321.449 139.760,321.627 140.200 L 321.949 141.000 321.944 140.200 C 321.941 139.760,321.684 138.770,321.373 138.000 L 320.807 136.600 321.055 138.000 M64.064 139.060 C 63.487 141.348,63.097 143.831,63.354 143.577 C 63.646 143.288,64.788 137.855,64.597 137.664 C 64.518 137.584,64.278 138.212,64.064 139.060 M322.159 142.400 C 322.257 142.950,322.556 144.800,322.825 146.510 C 323.093 148.221,323.392 149.541,323.489 149.444 C 323.739 149.195,322.800 143.236,322.353 142.234 C 322.017 141.480,321.999 141.496,322.159 142.400 M62.673 145.281 C 62.314 146.753,61.873 151.419,62.112 151.200 C 62.389 150.947,63.264 144.730,63.053 144.519 C 62.967 144.433,62.795 144.776,62.673 145.281 M323.870 153.111 C 323.999 154.712,324.253 156.602,324.434 157.311 C 324.637 158.110,324.673 157.394,324.527 155.429 C 324.398 153.684,324.144 151.794,323.963 151.229 C 323.767 150.614,323.729 151.372,323.870 153.111 M61.693 152.800 C 61.693 153.570,61.775 153.885,61.876 153.500 C 61.976 153.115,61.976 152.485,61.876 152.100 C 61.775 151.715,61.693 152.030,61.693 152.800 M61.067 156.700 C 60.559 160.786,60.402 163.865,60.774 162.423 C 61.200 160.777,61.764 154.800,61.493 154.800 C 61.389 154.800,61.197 155.655,61.067 156.700 M168.200 159.481 C 168.420 159.708,169.500 160.397,170.600 161.013 C 171.700 161.628,172.420 161.946,172.200 161.719 C 171.980 161.492,170.900 160.803,169.800 160.187 C 168.700 159.572,167.980 159.254,168.200 159.481 M172.800 162.141 C 172.800 162.293,175.071 163.654,179.700 166.277 C 179.865 166.371,180.000 166.362,180.000 166.259 C 180.000 166.107,177.729 164.746,173.100 162.123 C 172.935 162.029,172.800 162.038,172.800 162.141 M325.291 163.800 C 325.285 164.680,325.520 167.470,325.812 170.000 L 326.344 174.600 326.128 170.200 C 326.010 167.780,325.775 164.990,325.607 164.000 L 325.300 162.200 325.291 163.800 M60.093 166.400 C 60.093 167.170,60.175 167.485,60.276 167.100 C 60.376 166.715,60.376 166.085,60.276 165.700 C 60.175 165.315,60.093 165.630,60.093 166.400 M180.749 166.916 C 181.051 167.292,181.501 167.604,181.749 167.609 C 181.997 167.614,182.650 167.970,183.200 168.400 C 184.187 169.172,185.347 169.553,184.580 168.853 C 183.640 167.995,180.232 166.272,180.749 166.916 M59.459 171.060 C 59.128 174.974,59.203 227.812,59.543 231.000 C 59.685 232.320,59.800 218.685,59.800 200.700 C 59.800 182.715,59.781 168.000,59.759 168.000 C 59.736 168.000,59.601 169.377,59.459 171.060 M186.000 169.967 C 186.963 170.752,187.600 171.008,187.600 170.610 C 187.600 170.506,187.015 170.135,186.300 169.786 L 185.000 169.152 186.000 169.967 M188.200 171.081 C 188.420 171.308,189.500 171.997,190.600 172.613 C 191.700 173.228,192.420 173.546,192.200 173.319 C 191.980 173.092,190.900 172.403,189.800 171.787 C 188.700 171.172,187.980 170.854,188.200 171.081 M192.800 173.779 C 192.800 173.889,193.340 174.259,194.000 174.600 C 194.660 174.941,195.200 175.131,195.200 175.021 C 195.200 174.911,194.660 174.541,194.000 174.200 C 193.340 173.859,192.800 173.669,192.800 173.779 M195.600 175.379 C 195.600 175.489,196.140 175.859,196.800 176.200 C 197.460 176.541,198.000 176.731,198.000 176.621 C 198.000 176.511,197.460 176.141,196.800 175.800 C 196.140 175.459,195.600 175.269,195.600 175.379 M198.600 177.081 C 198.820 177.308,199.900 177.997,201.000 178.613 C 202.100 179.228,202.820 179.546,202.600 179.319 C 202.380 179.092,201.300 178.403,200.200 177.787 C 199.100 177.172,198.380 176.854,198.600 177.081 M326.587 199.800 C 326.587 212.560,326.638 217.838,326.700 211.529 C 326.762 205.219,326.762 194.779,326.700 188.329 C 326.638 181.878,326.587 187.040,326.587 199.800 M203.200 179.706 C 203.200 180.055,229.660 195.600,230.253 195.600 C 230.376 195.600,231.010 195.980,231.661 196.444 C 232.313 196.908,232.931 197.203,233.034 197.099 C 233.138 196.996,227.052 193.342,219.511 188.980 C 211.970 184.619,205.215 180.706,204.500 180.285 C 203.785 179.865,203.200 179.604,203.200 179.706 M233.600 197.379 C 233.600 197.489,234.140 197.859,234.800 198.200 C 235.460 198.541,236.000 198.731,236.000 198.621 C 236.000 198.511,235.460 198.141,234.800 197.800 C 234.140 197.459,233.600 197.269,233.600 197.379 M236.400 198.953 C 236.400 199.078,236.962 199.470,237.650 199.826 C 239.331 200.695,240.290 200.040,221.293 210.998 C 212.214 216.234,204.859 220.592,204.948 220.681 C 205.272 221.005,239.227 201.080,239.083 200.650 C 238.924 200.173,236.400 198.577,236.400 198.953 M203.100 221.429 C 201.605 222.240,201.696 222.578,203.200 221.800 C 203.860 221.459,204.400 221.094,204.400 220.990 C 204.400 220.732,204.357 220.747,203.100 221.429 M183.815 232.615 C 174.144 238.217,166.503 242.800,166.835 242.800 C 167.168 242.800,167.611 242.637,167.820 242.438 C 168.029 242.238,168.920 241.678,169.800 241.192 C 181.515 234.721,202.464 222.345,201.586 222.415 C 201.484 222.423,193.487 227.013,183.815 232.615 M325.875 226.490 C 325.425 230.484,325.094 235.800,325.308 235.600 C 325.598 235.329,326.550 224.816,326.306 224.573 C 326.200 224.466,326.006 225.329,325.875 226.490 M60.101 235.000 C 60.105 235.880,60.187 236.193,60.283 235.695 C 60.379 235.198,60.375 234.478,60.275 234.095 C 60.175 233.713,60.096 234.120,60.101 235.000 M324.901 238.200 C 324.905 239.080,324.987 239.393,325.083 238.895 C 325.179 238.398,325.175 237.678,325.075 237.295 C 324.975 236.913,324.896 237.320,324.901 238.200 M60.663 240.800 C 60.787 242.670,61.040 244.920,61.226 245.800 C 61.457 246.895,61.492 246.327,61.337 244.000 C 61.213 242.130,60.960 239.880,60.774 239.000 C 60.543 237.905,60.508 238.473,60.663 240.800 M324.263 243.500 C 323.728 248.615,323.608 251.095,323.978 249.400 C 324.417 247.383,324.961 241.200,324.699 241.200 C 324.591 241.200,324.395 242.235,324.263 243.500 M62.221 253.293 C 62.331 254.775,62.594 256.395,62.806 256.893 C 63.236 257.908,62.965 255.041,62.362 252.200 C 62.096 250.950,62.066 251.189,62.221 253.293 M322.839 254.690 C 322.578 256.400,322.281 258.340,322.180 259.000 C 322.022 260.033,322.049 260.078,322.375 259.327 C 322.811 258.322,323.734 252.001,323.481 251.748 C 323.389 251.655,323.100 252.979,322.839 254.690 M63.459 259.980 C 63.687 261.681,64.723 265.035,64.763 264.200 C 64.773 263.980,64.430 262.540,64.001 261.000 C 63.411 258.882,63.278 258.634,63.459 259.980 M321.229 262.649 C 320.973 263.665,320.846 264.579,320.945 264.679 C 321.143 264.877,321.396 264.114,321.802 262.100 C 322.199 260.125,321.759 260.548,321.229 262.649 M65.024 265.540 C 65.442 267.080,67.219 270.914,67.421 270.712 C 67.524 270.609,66.969 269.192,66.188 267.563 C 65.408 265.933,64.884 265.023,65.024 265.540 M318.302 270.378 C 314.308 278.580,308.768 284.113,300.600 288.057 C 298.400 289.119,296.829 289.991,297.108 289.994 C 299.409 290.020,309.651 283.247,312.632 279.727 C 315.967 275.790,321.003 267.249,320.355 266.628 C 320.270 266.547,319.346 268.234,318.302 270.378 M68.200 272.400 C 68.541 273.060,68.911 273.600,69.021 273.600 C 69.131 273.600,68.941 273.060,68.600 272.400 C 68.259 271.740,67.889 271.200,67.779 271.200 C 67.669 271.200,67.859 271.740,68.200 272.400 M69.440 274.400 C 70.089 275.759,74.242 280.529,76.345 282.330 C 79.099 284.689,84.120 287.975,85.800 288.519 C 86.822 288.849,86.383 288.551,82.361 286.186 C 78.011 283.627,74.649 280.566,70.277 275.183 C 69.659 274.422,69.283 274.070,69.440 274.400 M87.600 289.330 C 88.150 289.638,89.140 289.997,89.800 290.128 L 91.000 290.367 89.800 289.833 C 89.140 289.539,88.150 289.180,87.600 289.035 L 86.600 288.771 87.600 289.330 M294.000 290.569 C 291.374 291.295,290.771 291.635,292.587 291.366 C 293.461 291.237,294.721 290.891,295.387 290.598 C 296.903 289.932,296.347 289.920,294.000 290.569 M92.200 290.998 C 93.550 291.635,95.077 291.841,94.000 291.242 C 93.670 291.058,92.860 290.801,92.200 290.670 L 91.000 290.433 92.200 290.998 M95.860 291.963 C 96.928 292.437,103.163 293.370,103.436 293.097 C 103.546 292.987,102.143 292.683,100.318 292.421 C 98.493 292.160,96.550 291.864,96.000 291.764 C 95.069 291.594,95.060 291.608,95.860 291.963 M286.675 292.282 C 284.956 292.612,283.635 292.968,283.740 293.073 C 283.960 293.294,290.404 292.129,290.722 291.812 C 291.026 291.507,290.206 291.603,286.675 292.282 M106.200 293.599 C 107.080 293.782,109.420 294.028,111.400 294.145 C 113.934 294.296,114.408 294.265,113.000 294.040 C 110.021 293.564,104.220 293.187,106.200 293.599 M277.200 293.644 C 272.710 294.153,272.169 294.380,276.000 294.148 C 279.608 293.928,283.686 293.287,281.400 293.298 C 280.740 293.301,278.850 293.457,277.200 293.644 M116.100 294.687 C 116.705 294.778,117.695 294.778,118.300 294.687 C 118.905 294.595,118.410 294.520,117.200 294.520 C 115.990 294.520,115.495 294.595,116.100 294.687 M270.305 294.683 C 270.802 294.779,271.522 294.775,271.905 294.675 C 272.287 294.575,271.880 294.496,271.000 294.501 C 270.120 294.505,269.807 294.587,270.305 294.683 M123.400 295.194 C 124.720 295.376,128.500 295.619,131.800 295.734 C 135.870 295.877,136.835 295.843,134.800 295.628 C 130.379 295.163,120.423 294.784,123.400 295.194 M256.610 295.248 C 252.655 295.429,249.145 295.659,248.810 295.761 C 247.830 296.059,264.419 295.524,266.400 295.194 L 268.200 294.894 266.000 294.907 C 264.790 294.915,260.564 295.068,256.610 295.248 M143.513 296.295 C 144.676 296.376,146.476 296.376,147.513 296.293 C 148.551 296.211,147.600 296.145,145.400 296.146 C 143.200 296.147,142.351 296.214,143.513 296.295 M239.900 296.293 C 240.835 296.377,242.365 296.377,243.300 296.293 C 244.235 296.209,243.470 296.140,241.600 296.140 C 239.730 296.140,238.965 296.209,239.900 296.293 M156.000 296.853 C 163.049 297.183,225.062 297.184,231.800 296.854 C 234.660 296.714,217.560 296.600,193.800 296.600 C 170.040 296.600,153.030 296.714,156.000 296.853 " stroke="none" fill="#fc7c7c" fill-rule="evenodd"></path><path id="path4" d="M7.467 7.867 C 7.320 8.013,7.200 91.533,7.200 193.467 L 7.200 378.800 192.800 378.800 L 378.400 378.800 378.400 193.200 L 378.400 7.600 193.067 7.600 C 91.133 7.600,7.613 7.720,7.467 7.867 M378.000 193.400 L 378.000 378.401 192.900 378.300 L 7.800 378.200 7.700 193.300 L 7.599 8.400 192.800 8.400 L 378.000 8.400 378.000 193.400 " stroke="none" fill="#c40404" fill-rule="evenodd"></path></g></svg>